<svg width="309" height="230" viewBox="0 0 309 230" fill="none" xmlns="http://www.w3.org/2000/svg">
<path d="M154.599 229.353C220.42 229.353 273.778 226.238 273.778 222.395C273.778 218.552 220.42 215.437 154.599 215.437C88.7778 215.437 35.4194 218.552 35.4194 222.395C35.4194 226.238 88.7778 229.353 154.599 229.353Z" fill="#F5F5F5"/>
<path d="M215.605 66.999L209.507 64.5403C209.507 64.5403 201.461 79.2126 199.156 79.9563C196.021 80.9644 189.53 83.7673 185.683 84.2591C185.16 84.8737 184.306 86.7854 184.386 87.48C189.555 89.2072 200.914 86.9145 203.348 85.1073C208.887 81.0074 215.605 66.999 215.605 66.999Z" fill="#E58A7B"/>
<path d="M217.48 63.6613C218.617 67.8595 212.458 76.3051 212.458 76.3051L204.387 71.7811C204.387 71.7811 205.899 68.3082 207.743 64.7738C210.7 59.0635 216.183 58.873 217.48 63.6613Z" fill="#4CAF4F"/>
<path opacity="0.2" d="M217.48 63.6613C218.617 67.8595 212.458 76.3051 212.458 76.3051L204.387 71.7811C204.387 71.7811 205.899 68.3082 207.743 64.7738C210.7 59.0635 216.183 58.873 217.48 63.6613Z" fill="black"/>
<path opacity="0.2" d="M207.59 73.5883L210.767 75.3709L211.327 65.616C209.477 67.0359 208.174 71.314 207.59 73.5883Z" fill="black"/>
<path d="M212.169 60.5018C212.169 60.5018 205.887 74.4796 209.551 100.505H234.304C234.697 96.7062 233.394 78.1676 238.108 60.2683C235.393 59.7376 232.646 59.3865 229.884 59.2172C226.381 59.0142 222.87 59.0142 219.367 59.2172C216.939 59.4637 214.533 59.8932 212.169 60.5018Z" fill="#4CAF4F"/>
<path opacity="0.2" d="M212.169 60.5018C212.169 60.5018 205.887 74.4796 209.551 100.505H234.304C234.697 96.7062 233.394 78.1676 238.108 60.2683C235.393 59.7376 232.646 59.3865 229.884 59.2172C226.381 59.0142 222.87 59.0142 219.367 59.2172C216.939 59.4637 214.533 59.8932 212.169 60.5018Z" fill="black"/>
<g style="mix-blend-mode:multiply">
<path d="M206.428 222.948C206.391 223.612 215.777 224.147 227.388 224.147C238.999 224.147 248.453 223.612 248.49 222.948C248.527 222.284 239.147 221.756 227.53 221.756C215.912 221.756 206.471 222.29 206.428 222.948Z" fill="#E8ECF1"/>
</g>
<path d="M222.951 205.505L218.561 207.205L222.342 216.974L226.733 215.275L222.951 205.505Z" fill="#E58A7B"/>
<path d="M242.528 218.221H237.899L236.203 207.508H240.831L242.528 218.221Z" fill="#E58A7B"/>
<path d="M237.58 217.687H242.78C242.87 217.687 242.957 217.719 243.026 217.778C243.094 217.836 243.14 217.917 243.155 218.006L243.825 222.118C243.839 222.222 243.831 222.327 243.8 222.426C243.77 222.526 243.719 222.618 243.65 222.696C243.582 222.774 243.497 222.837 243.402 222.879C243.307 222.921 243.203 222.943 243.099 222.942C241.286 222.911 240.413 222.801 238.127 222.801C236.719 222.801 233.824 222.948 231.869 222.948C229.915 222.948 229.785 221.03 230.591 220.852C234.205 220.071 235.606 219.008 236.811 217.975C237.024 217.789 237.297 217.686 237.58 217.687Z" fill="#263238"/>
<path d="M222.213 216.101L227.13 214.662C227.218 214.637 227.312 214.643 227.395 214.679C227.479 214.715 227.548 214.778 227.591 214.859L229.435 218.547C229.478 218.641 229.5 218.742 229.499 218.845C229.499 218.948 229.476 219.05 229.432 219.143C229.388 219.236 229.324 219.318 229.245 219.384C229.166 219.45 229.074 219.498 228.974 219.524C227.186 220.016 225.987 220.317 223.75 220.969C222.207 221.417 220.633 222.149 219.109 222.635C218.051 222.973 215.568 222.985 214.284 222.985C212.384 222.985 211.96 220.981 212.778 220.889C214.837 220.661 215.113 220.766 216.25 220.194C218.111 219.381 219.797 218.216 221.217 216.764C221.485 216.459 221.828 216.23 222.213 216.101Z" fill="#263238"/>
<path d="M186.457 84.2345L181.368 82.1016L179.271 87.7443C181.358 88.062 183.48 88.062 185.566 87.7443L186.457 84.2345Z" fill="#E58A7B"/>
<path d="M177.581 81.9539L177.446 85.7034L179.272 87.7318L181.368 82.0891L177.581 81.9539Z" fill="#E58A7B"/>
<path d="M223.553 206.335L219.149 208.035L221.1 213.087L225.503 211.387L223.553 206.335Z" fill="#CF6F64"/>
<path d="M240.831 207.508H236.203L237.082 213.034H241.71L240.831 207.508Z" fill="#CF6F64"/>
<path opacity="0.2" d="M208.764 93.4669C208.856 94.5795 208.96 95.7167 209.096 96.8845L227.499 90.9099C230.373 90.0581 232.871 88.252 234.58 85.7896C234.654 84.1485 234.746 82.4212 234.887 80.6202C234.949 79.7474 235.023 78.85 235.103 77.9402C235.182 77.0305 235.293 76.0225 235.41 75.0513L208.764 93.4669Z" fill="black"/>
<path d="M214.775 73.3055L214.161 73.2318C214.523 70.1584 216.816 67.7366 219.232 67.798V68.4127C217.117 68.3697 215.101 70.5518 214.775 73.3055Z" fill="white"/>
<path d="M218.052 78.979H217.947V78.3644C220.062 78.4443 222.047 76.2376 222.373 73.49L222.987 73.5637C222.662 76.5695 220.443 78.979 218.052 78.979Z" fill="white"/>
<path d="M229.54 47.3723C228.673 50.7592 227.653 56.9612 229.884 59.2171C229.884 59.2171 228.323 62.6531 222.034 62.6531C216.287 62.6531 219.367 59.2171 219.367 59.2171C223.19 58.3197 223.258 55.5291 222.754 52.886L229.54 47.3723Z" fill="#E58A7B"/>
<path d="M226.774 49.6221L222.76 52.886C222.884 53.4934 222.956 54.1103 222.975 54.73C224.149 55.8979 226.503 52.9413 226.743 51.4292C226.865 50.8339 226.875 50.2212 226.774 49.6221Z" fill="#CF6F64"/>
<path d="M215.857 47.3294C216.136 47.8135 216.513 48.2347 216.962 48.5668C217.412 48.8989 217.925 49.1347 218.469 49.2595C219.945 49.5853 220.682 48.2268 220.277 46.8623C219.914 45.6329 218.703 43.9794 217.203 44.2622C216.882 44.3284 216.581 44.4706 216.326 44.6769C216.071 44.8832 215.869 45.1476 215.738 45.4479C215.606 45.7483 215.548 46.0758 215.569 46.4032C215.589 46.7305 215.688 47.0481 215.857 47.3294Z" fill="#CF6F64"/>
<path d="M218.297 36.4927C215.998 37.5438 215.187 46.6778 218.076 48.0301C220.965 49.3824 222.649 34.495 218.297 36.4927Z" fill="#263238"/>
<path d="M230.24 42.2767C229.687 46.8621 229.626 49.5606 227.167 51.9086C226.405 52.6878 225.443 53.2413 224.386 53.508C223.329 53.7747 222.22 53.7442 221.179 53.4198C220.139 53.0955 219.208 52.49 218.49 51.6701C217.773 50.8502 217.295 49.8479 217.111 48.7738C216.367 44.6555 217.394 37.851 221.992 36.0254C222.958 35.5993 224.02 35.4394 225.069 35.5621C226.117 35.6849 227.114 36.0859 227.956 36.7236C228.797 37.3613 229.453 38.2125 229.854 39.1889C230.256 40.1653 230.389 41.2314 230.24 42.2767Z" fill="#E58A7B"/>
<path d="M222.686 38.8652C226.092 37.9985 228.593 37.4084 227.696 40.2421C226.51 44.0285 225.083 47.692 226.995 47.8579C228.163 47.9624 233.326 45.7742 232.669 43.5552C232.097 41.6251 234.513 41.0965 234.943 40.1192C236.535 36.5786 231.98 37.0458 232.791 34.8944C233.603 32.7431 229.103 29.2763 226.645 31.0035C222.643 33.7942 215.777 33.7511 219.385 29.1595C221.973 25.8833 217.357 26.5533 217.357 26.5533C217.357 26.5533 220.148 28.2068 215.452 30.7638C210.485 33.493 215.04 40.826 222.686 38.8652Z" fill="#263238"/>
<path d="M232.048 47.3294C231.375 48.3021 230.365 48.9901 229.214 49.2595C227.696 49.5853 227.112 48.2268 227.683 46.8623C228.194 45.6329 229.595 43.9794 231.046 44.2622C232.496 44.5449 232.828 46.1246 232.048 47.3294Z" fill="#E58A7B"/>
<path d="M209.551 100.505C209.551 100.505 205.395 137.693 205.07 151.806C204.738 166.484 219.152 212.284 219.152 212.284L226.528 209.21C226.528 209.21 217.922 167.363 219.152 152.949C220.455 137.232 225.839 100.529 225.839 100.529L209.551 100.505Z" fill="#4CAF4F"/>
<path opacity="0.2" d="M219.877 110.715C216.564 117.587 218.795 131.177 220.59 139.229C221.272 133.544 222.084 127.372 222.852 121.662C222.778 112.884 222.096 106.105 219.877 110.715Z" fill="black"/>
<path d="M226.202 206.776C226.239 206.776 227.075 209.124 227.075 209.124L218.568 212.702L217.228 210.206L226.202 206.776Z" fill="#4CAF4F"/>
<path d="M218.334 100.505C218.334 100.505 221.512 135.873 223.614 149.12C225.925 163.632 234.986 211.964 234.986 211.964H243.462C243.462 211.964 238.385 164.806 237.426 150.435C236.381 134.847 234.303 100.505 234.303 100.505H218.334Z" fill="#4CAF4F"/>
<path d="M243.591 209.757C243.628 209.757 243.874 212.124 243.874 212.124H234.555L233.892 209.407L243.591 209.757Z" fill="#4CAF4F"/>
<path opacity="0.2" d="M240.346 206.954C240.327 206.955 240.308 206.948 240.293 206.935C240.279 206.923 240.269 206.906 240.266 206.887C240.217 206.456 235.637 163.86 234.777 150.951C233.842 136.949 231.962 105.889 231.943 105.576C231.942 105.566 231.944 105.556 231.947 105.546C231.95 105.536 231.956 105.527 231.962 105.52C231.969 105.512 231.978 105.506 231.987 105.502C231.997 105.498 232.007 105.496 232.017 105.496C232.037 105.496 232.057 105.504 232.071 105.517C232.086 105.531 232.095 105.55 232.097 105.57C232.097 105.883 233.996 136.918 234.93 150.945C235.791 163.853 240.37 206.42 240.413 206.881C240.415 206.891 240.415 206.901 240.412 206.911C240.41 206.921 240.405 206.931 240.399 206.939C240.392 206.947 240.384 206.953 240.375 206.958C240.366 206.963 240.356 206.966 240.346 206.967V206.954Z" fill="black"/>
<path d="M223.209 43.5553C223.209 43.9302 222.975 44.2314 222.729 44.2314C222.483 44.2314 222.305 43.9302 222.33 43.5553C222.354 43.1803 222.563 42.8792 222.809 42.8792C223.055 42.8792 223.233 43.1865 223.209 43.5553Z" fill="#263238"/>
<path d="M218.992 43.5553C218.992 43.9302 218.752 44.2314 218.512 44.2314C218.273 44.2314 218.088 43.9302 218.107 43.5553C218.125 43.1803 218.346 42.8792 218.592 42.8792C218.838 42.8792 219.016 43.1865 218.992 43.5553Z" fill="#263238"/>
<path d="M220.32 43.7458C219.806 44.8908 219.145 45.9634 218.353 46.936C218.967 47.5507 220.117 47.2679 220.117 47.2679L220.32 43.7458Z" fill="#DF5753"/>
<path d="M220.43 48.8352C220.416 48.8352 220.402 48.8323 220.389 48.8267C220.376 48.821 220.364 48.8128 220.354 48.8024C220.344 48.792 220.337 48.7798 220.332 48.7664C220.327 48.753 220.325 48.7387 220.326 48.7245C220.327 48.6946 220.34 48.6665 220.362 48.6459C220.384 48.6253 220.412 48.6138 220.442 48.6139C220.913 48.6171 221.377 48.515 221.803 48.315C222.228 48.1151 222.604 47.8223 222.901 47.4583C222.922 47.4397 222.95 47.4294 222.978 47.4294C223.006 47.4294 223.033 47.4397 223.055 47.4583C223.075 47.4789 223.086 47.5064 223.086 47.5351C223.086 47.5638 223.075 47.5913 223.055 47.6119C222.736 47.9988 222.335 48.3095 221.881 48.5212C221.427 48.7328 220.931 48.8401 220.43 48.8352Z" fill="#263238"/>
<path d="M223.958 42.4241C223.929 42.4392 223.896 42.4471 223.863 42.4471C223.83 42.4471 223.797 42.4392 223.768 42.4241C223.538 42.2755 223.276 42.183 223.004 42.1542C222.732 42.1253 222.456 42.1609 222.2 42.2581C222.175 42.2706 222.148 42.278 222.12 42.2798C222.093 42.2816 222.065 42.2778 222.038 42.2686C222.012 42.2594 221.988 42.2451 221.967 42.2264C221.946 42.2077 221.929 42.1851 221.918 42.1598C221.895 42.1051 221.894 42.0436 221.916 41.9885C221.938 41.9334 221.98 41.889 222.034 41.8648C222.356 41.7335 222.704 41.6817 223.05 41.7138C223.395 41.7459 223.728 41.861 224.02 42.0492C224.043 42.0652 224.064 42.0857 224.079 42.1096C224.095 42.1334 224.105 42.1602 224.11 42.1882C224.116 42.2162 224.115 42.245 224.109 42.2728C224.103 42.3006 224.092 42.327 224.075 42.3503C224.044 42.3856 224.004 42.4112 223.958 42.4241Z" fill="#263238"/>
<path d="M217.363 41.1949C217.33 41.187 217.3 41.1699 217.277 41.1457C217.257 41.1257 217.24 41.1018 217.229 41.0754C217.218 41.049 217.212 41.0207 217.212 40.992C217.212 40.9634 217.218 40.9351 217.229 40.9087C217.24 40.8823 217.257 40.8584 217.277 40.8384C217.513 40.5741 217.806 40.3679 218.134 40.2357C218.463 40.1035 218.817 40.0489 219.17 40.0762C219.198 40.0805 219.226 40.0907 219.25 40.1059C219.274 40.1212 219.295 40.1412 219.311 40.1649C219.327 40.1885 219.338 40.2152 219.344 40.2433C219.349 40.2714 219.348 40.3003 219.342 40.3282C219.329 40.3851 219.296 40.4353 219.248 40.4692C219.201 40.5032 219.142 40.5186 219.084 40.5126C218.805 40.495 218.525 40.5412 218.266 40.6477C218.008 40.7542 217.776 40.9182 217.59 41.1273C217.562 41.1584 217.526 41.1812 217.486 41.1931C217.446 41.205 217.403 41.2056 217.363 41.1949Z" fill="#263238"/>
<path d="M240.487 66.3167L234.095 64.614C234.095 64.614 227.825 80.0485 225.606 81.0504C222.594 82.4273 214.966 87.1972 211.72 89.453C211.542 90.2214 211.683 92.2559 212.089 92.8153C217.621 91.8072 228.212 87.7319 230.425 85.6605C235.471 80.9336 240.487 66.3167 240.487 66.3167Z" fill="#E58A7B"/>
<path d="M236.025 218.498C235.713 218.523 235.402 218.438 235.146 218.258C235.066 218.187 235.007 218.096 234.974 217.995C234.94 217.893 234.934 217.785 234.955 217.68C234.959 217.615 234.98 217.552 235.017 217.498C235.054 217.444 235.105 217.401 235.164 217.373C235.68 217.109 237.125 218.025 237.291 218.129C237.309 218.14 237.323 218.157 237.331 218.177C237.339 218.197 237.34 218.219 237.334 218.24C237.329 218.261 237.318 218.281 237.303 218.297C237.288 218.313 237.269 218.325 237.248 218.332C236.847 218.43 236.437 218.486 236.025 218.498ZM235.41 217.539C235.363 217.529 235.315 217.529 235.268 217.539C235.245 217.551 235.225 217.57 235.212 217.593C235.199 217.616 235.193 217.642 235.195 217.668C235.178 217.74 235.181 217.814 235.203 217.884C235.224 217.955 235.264 218.018 235.318 218.068C235.557 218.283 236.16 218.307 236.953 218.154C236.481 217.843 235.949 217.633 235.391 217.539H235.41Z" fill="#4CAF4F"/>
<path d="M237.217 218.332C237.201 218.337 237.184 218.337 237.168 218.332C236.707 218.074 235.84 217.06 235.969 216.543C235.989 216.461 236.035 216.388 236.101 216.336C236.166 216.284 236.248 216.255 236.332 216.254C236.414 216.243 236.498 216.25 236.578 216.275C236.657 216.299 236.731 216.34 236.793 216.396C237.303 216.832 237.334 218.172 237.334 218.24C237.337 218.26 237.333 218.281 237.323 218.298C237.313 218.316 237.297 218.33 237.279 218.338C237.258 218.342 237.236 218.34 237.217 218.332ZM236.393 216.457H236.35C236.209 216.457 236.191 216.537 236.184 216.568C236.111 216.869 236.658 217.637 237.113 218C237.11 217.481 236.95 216.975 236.652 216.549C236.58 216.487 236.488 216.454 236.393 216.457Z" fill="#4CAF4F"/>
<path d="M219.705 217.73C219.329 217.861 218.919 217.861 218.543 217.73C218.458 217.683 218.385 217.616 218.333 217.535C218.28 217.453 218.249 217.359 218.242 217.262C218.234 217.202 218.242 217.14 218.265 217.083C218.287 217.026 218.324 216.976 218.371 216.937C218.863 216.494 220.873 216.937 221.1 217.023C221.122 217.028 221.141 217.041 221.154 217.059C221.168 217.077 221.175 217.099 221.174 217.121C221.175 217.144 221.169 217.167 221.157 217.187C221.145 217.206 221.127 217.222 221.106 217.232C220.654 217.436 220.185 217.602 219.705 217.73ZM218.703 216.998C218.633 217.012 218.567 217.044 218.512 217.09C218.493 217.105 218.478 217.125 218.469 217.148C218.46 217.171 218.458 217.195 218.463 217.219C218.467 217.284 218.487 217.346 218.522 217.401C218.556 217.456 218.604 217.501 218.66 217.533C218.986 217.705 219.742 217.57 220.719 217.158C220.061 216.992 219.379 216.938 218.703 216.998Z" fill="#4CAF4F"/>
<path d="M221.088 217.232H221.039C220.424 217.121 219.195 216.414 219.158 215.886C219.158 215.763 219.213 215.59 219.508 215.492C219.608 215.457 219.714 215.442 219.819 215.448C219.925 215.454 220.028 215.482 220.123 215.529C220.787 215.855 221.137 217.035 221.156 217.09C221.16 217.109 221.159 217.128 221.154 217.147C221.149 217.165 221.139 217.181 221.125 217.195C221.116 217.21 221.103 217.222 221.088 217.232ZM219.631 215.677H219.57C219.379 215.744 219.379 215.824 219.379 215.849C219.379 216.168 220.271 216.752 220.891 216.949C220.748 216.455 220.446 216.023 220.031 215.72C219.907 215.657 219.765 215.641 219.631 215.677Z" fill="#4CAF4F"/>
<path d="M212.243 89.0903L205.832 92.0408L205.088 93.8848L207.454 95.4768C207.454 95.4768 211.88 94.9974 213.14 92.1514L212.243 89.0903Z" fill="#E58A7B"/>
<path d="M212.513 92.9197C212.37 91.6879 211.963 90.5014 211.321 89.4407L212.335 88.6785C213.098 89.9006 213.585 91.2747 213.761 92.7046L212.513 92.9197Z" fill="#263238"/>
<path d="M213.607 89.9632C213.743 90.1764 213.809 90.4261 213.798 90.6785C213.787 90.9308 213.698 91.1735 213.543 91.3736C213.389 91.5736 213.177 91.7213 212.936 91.7965C212.695 91.8717 212.436 91.8707 212.196 91.7938C211.955 91.7169 211.744 91.5677 211.591 91.3666C211.438 91.1654 211.351 90.9221 211.341 90.6697C211.332 90.4172 211.4 90.168 211.537 89.9558C211.674 89.7436 211.873 89.5788 212.108 89.4838C212.37 89.3499 212.675 89.3252 212.956 89.4149C213.237 89.5047 213.471 89.7018 213.607 89.9632Z" fill="#263238"/>
<path d="M201.498 94.4257L202.353 95.2863L208.106 92.8276L205.832 92.0408L201.498 94.4257Z" fill="#E58A7B"/>
<path opacity="0.2" d="M226.202 206.776C226.239 206.776 227.075 209.124 227.075 209.124L218.568 212.702L217.228 210.206L226.202 206.776Z" fill="black"/>
<path opacity="0.2" d="M243.591 209.757C243.628 209.757 243.874 212.124 243.874 212.124H234.555L233.892 209.407L243.591 209.757Z" fill="black"/>
<path d="M242.153 64.5464C243.843 69.9985 237.236 77.4545 237.236 77.4545L228.108 73.7296C229.19 70.5783 230.437 67.4863 231.845 64.4665C234.648 58.4242 240.444 59.045 242.153 64.5464Z" fill="#4CAF4F"/>
<path opacity="0.2" d="M242.153 64.5464C243.843 69.9985 237.236 77.4545 237.236 77.4545L228.108 73.7296C229.19 70.5783 230.437 67.4863 231.845 64.4665C234.648 58.4242 240.444 59.045 242.153 64.5464Z" fill="black"/>
<path d="M151.451 9.92017H147.524V10.5533H151.451V9.92017Z" fill="#4CAF4F"/>
<path d="M202.296 34.9784L201.821 45.5278L202.453 45.5563L202.929 35.0069L202.296 34.9784Z" fill="#4CAF4F"/>
<path d="M201.074 12.76H128.543L121.793 163.798H194.325L201.074 12.76Z" fill="#4CAF4F"/>
<path opacity="0.56" d="M198.911 14.8376H126.379L119.63 165.876H192.162L198.911 14.8376Z" fill="#FAFAFA"/>
<path opacity="0.07" d="M196.747 16.9089H124.215L117.46 167.947H189.992L196.747 16.9089Z" fill="#4CAF4F"/>
<path d="M188.492 82.7837H126.582L126.065 94.3396H187.975L188.492 82.7837Z" fill="white"/>
<path d="M160.629 74.3503H126.957L126.729 79.5198H160.401L160.629 74.3503Z" fill="#4CAF4F"/>
<path d="M187.097 113.972H125.186L124.67 125.528H186.58L187.097 113.972Z" fill="white"/>
<path opacity="0.47" d="M175.743 141.135H134.112L133.491 154.983H175.123L175.743 141.135Z" fill="#4CAF4F"/>
<path d="M172.959 157.135H131.327C131.309 157.14 131.29 157.14 131.272 157.135C131.266 157.117 131.266 157.097 131.272 157.08L131.886 143.225C131.886 143.215 131.888 143.206 131.892 143.197C131.896 143.189 131.901 143.181 131.908 143.175C131.915 143.168 131.923 143.163 131.932 143.16C131.941 143.157 131.951 143.156 131.96 143.157H173.592C173.6 143.153 173.608 143.151 173.617 143.151C173.625 143.151 173.634 143.153 173.641 143.157C173.646 143.165 173.648 143.173 173.648 143.182C173.648 143.19 173.646 143.199 173.641 143.206L173.039 157.092C173.031 157.106 173.02 157.118 173.006 157.126C172.991 157.133 172.975 157.137 172.959 157.135ZM131.401 156.987H172.885L173.5 143.28H132.015L131.401 156.987Z" fill="white"/>
<path d="M153.357 105.539H125.561L125.334 110.715H153.123L153.357 105.539Z" fill="#4CAF4F"/>
<path d="M174.95 45.4544C174.792 48.8176 173.596 52.049 171.527 54.7053C169.995 56.7117 168.024 58.3405 165.766 59.4668C163.507 60.593 161.02 61.1868 158.496 61.2024C156.456 61.218 154.435 60.8158 152.556 60.0206C150.678 59.2254 148.982 58.054 147.574 56.5787C146.165 55.1034 145.074 53.3553 144.366 51.4421C143.659 49.529 143.351 47.4912 143.461 45.4544C143.677 41.2279 145.499 37.2437 148.556 34.3164C151.612 31.3892 155.671 29.7401 159.903 29.7065C161.944 29.6874 163.968 30.0872 165.849 30.881C167.729 31.6748 169.427 32.8458 170.837 34.3217C172.248 35.7976 173.34 37.547 174.048 39.4618C174.755 41.3766 175.062 43.4162 174.95 45.4544Z" fill="white"/>
<path d="M176.432 33.0012C176.392 33.8955 176.074 34.755 175.522 35.4599C175.114 35.9928 174.59 36.4255 173.989 36.7248C173.388 37.0242 172.727 37.1823 172.055 37.1872C171.405 37.1911 170.764 37.0358 170.187 36.7347C169.611 36.4336 169.117 35.9959 168.749 35.4599C168.261 34.7357 168.019 33.8735 168.06 33.0012C168.12 31.8791 168.605 30.8219 169.417 30.0452C170.229 29.2685 171.307 28.8308 172.43 28.8215C172.973 28.8165 173.51 28.9226 174.009 29.1332C174.509 29.3439 174.96 29.6545 175.335 30.0461C175.71 30.4377 176.001 30.9019 176.189 31.4102C176.378 31.9184 176.461 32.4599 176.432 33.0012Z" fill="#4CAF4F"/>
<path d="M133.251 88.5616C133.221 89.0569 133.005 89.5226 132.646 89.8648C132.287 90.207 131.811 90.4003 131.315 90.4056C131.075 90.4085 130.838 90.3622 130.617 90.2696C130.396 90.1769 130.196 90.04 130.03 89.8671C129.864 89.6943 129.735 89.4893 129.652 89.2647C129.568 89.0402 129.532 88.8009 129.544 88.5616C129.571 88.0653 129.786 87.5979 130.146 87.2551C130.506 86.9123 130.984 86.72 131.481 86.7176C131.72 86.7156 131.957 86.7626 132.178 86.8555C132.398 86.9484 132.597 87.0854 132.763 87.2581C132.929 87.4307 133.058 87.6354 133.142 87.8595C133.225 88.0837 133.263 88.3226 133.251 88.5616Z" fill="#263238"/>
<path d="M141.537 88.5617C141.509 89.0575 141.293 89.5241 140.933 89.8666C140.574 90.209 140.097 90.4018 139.601 90.4057C139.361 90.4077 139.125 90.3608 138.904 90.2678C138.684 90.1748 138.485 90.0377 138.32 89.8649C138.155 89.6922 138.027 89.4875 137.943 89.2633C137.86 89.0392 137.824 88.8004 137.836 88.5617C137.863 88.0664 138.077 87.5999 138.436 87.2572C138.795 86.9146 139.271 86.7216 139.766 86.7177C140.006 86.7148 140.244 86.7611 140.465 86.8537C140.686 86.9464 140.885 87.0833 141.051 87.2562C141.217 87.429 141.346 87.634 141.429 87.8586C141.513 88.0831 141.549 88.3224 141.537 88.5617Z" fill="#263238"/>
<path d="M149.829 88.5617C149.801 89.0575 149.585 89.5241 149.225 89.8666C148.866 90.209 148.389 90.4018 147.892 90.4057C147.653 90.4077 147.416 90.3607 147.195 90.2678C146.975 90.1749 146.776 90.0379 146.61 89.8652C146.444 89.6926 146.315 89.4879 146.232 89.2638C146.148 89.0396 146.111 88.8007 146.122 88.5617C146.15 88.0659 146.366 87.5993 146.726 87.2568C147.085 86.9143 147.562 86.7215 148.058 86.7177C148.298 86.7148 148.536 86.7611 148.757 86.8537C148.978 86.9464 149.177 87.0833 149.343 87.2562C149.509 87.429 149.638 87.634 149.721 87.8586C149.805 88.0831 149.841 88.3224 149.829 88.5617Z" fill="#263238"/>
<path d="M131.856 119.75C131.826 120.246 131.61 120.711 131.251 121.054C130.891 121.396 130.416 121.589 129.919 121.594C129.68 121.596 129.443 121.549 129.222 121.456C129.002 121.364 128.803 121.227 128.637 121.054C128.471 120.881 128.342 120.677 128.258 120.452C128.175 120.228 128.137 119.989 128.149 119.75C128.177 119.255 128.393 118.788 128.753 118.445C129.112 118.103 129.589 117.91 130.085 117.906C130.325 117.904 130.562 117.951 130.782 118.044C131.003 118.137 131.202 118.274 131.368 118.447C131.534 118.619 131.662 118.824 131.746 119.048C131.83 119.272 131.867 119.511 131.856 119.75Z" fill="#263238"/>
<path d="M140.141 119.75C140.113 120.245 139.899 120.711 139.54 121.053C139.182 121.395 138.707 121.589 138.211 121.594C137.972 121.597 137.734 121.551 137.513 121.458C137.292 121.366 137.093 121.229 136.927 121.056C136.761 120.883 136.632 120.678 136.549 120.453C136.465 120.229 136.429 119.99 136.441 119.75C136.469 119.255 136.685 118.788 137.045 118.445C137.404 118.103 137.881 117.91 138.377 117.906C138.616 117.904 138.853 117.951 139.074 118.044C139.294 118.137 139.493 118.274 139.658 118.447C139.823 118.62 139.951 118.825 140.035 119.049C140.118 119.273 140.154 119.512 140.141 119.75Z" fill="#263238"/>
<path d="M148.452 119.75C148.424 120.246 148.208 120.713 147.848 121.055C147.489 121.398 147.012 121.591 146.516 121.594C146.277 121.596 146.04 121.548 145.82 121.455C145.6 121.362 145.401 121.224 145.235 121.052C145.07 120.88 144.941 120.675 144.857 120.452C144.772 120.228 144.735 119.989 144.745 119.75C144.775 119.255 144.991 118.789 145.351 118.447C145.71 118.105 146.186 117.912 146.682 117.906C146.921 117.904 147.159 117.95 147.38 118.042C147.601 118.135 147.8 118.272 147.966 118.445C148.132 118.618 148.261 118.823 148.344 119.047C148.428 119.272 148.465 119.511 148.452 119.75Z" fill="#263238"/>
<path d="M156.725 119.75C156.696 120.246 156.48 120.711 156.12 121.054C155.761 121.396 155.285 121.589 154.789 121.594C154.55 121.595 154.313 121.548 154.093 121.455C153.873 121.361 153.674 121.224 153.509 121.052C153.343 120.88 153.214 120.675 153.13 120.451C153.046 120.228 153.008 119.989 153.019 119.75C153.048 119.255 153.265 118.789 153.624 118.447C153.983 118.105 154.459 117.912 154.955 117.906C155.194 117.904 155.432 117.951 155.652 118.044C155.873 118.137 156.072 118.274 156.238 118.447C156.403 118.619 156.532 118.824 156.616 119.048C156.7 119.272 156.737 119.511 156.725 119.75Z" fill="#263238"/>
<path d="M165.048 119.75C165.019 120.246 164.802 120.711 164.443 121.054C164.084 121.396 163.608 121.589 163.112 121.594C162.872 121.597 162.635 121.551 162.414 121.458C162.193 121.366 161.993 121.229 161.827 121.056C161.661 120.883 161.533 120.678 161.449 120.453C161.365 120.229 161.329 119.99 161.342 119.75C161.37 119.255 161.585 118.788 161.945 118.445C162.305 118.103 162.781 117.91 163.278 117.906C163.517 117.904 163.754 117.951 163.975 118.044C164.195 118.137 164.395 118.274 164.56 118.447C164.726 118.619 164.855 118.824 164.939 119.048C165.023 119.272 165.06 119.511 165.048 119.75Z" fill="#263238"/>
<path d="M163.79 44.6343C166.363 42.1184 166.499 38.0857 164.095 35.6271C161.691 33.1684 157.656 33.2148 155.083 35.7307C152.51 38.2466 152.374 42.2793 154.778 44.7379C157.183 47.1966 161.217 47.1502 163.79 44.6343Z" fill="#4CAF4F"/>
<path d="M171.527 54.7055C169.995 56.7119 168.024 58.3407 165.766 59.467C163.507 60.5932 161.02 61.187 158.496 61.2026C156.048 61.2234 153.633 60.6416 151.463 59.5085C149.294 58.3755 147.436 56.726 146.055 54.7055C149.042 51.7305 153.769 49.7881 159.006 49.7881C164.243 49.7881 168.804 51.7305 171.527 54.7055Z" fill="#4CAF4F"/>
<path opacity="0.1" d="M163.79 44.6343C166.363 42.1184 166.499 38.0857 164.095 35.6271C161.691 33.1684 157.656 33.2148 155.083 35.7307C152.51 38.2466 152.374 42.2793 154.778 44.7379C157.183 47.1966 161.217 47.1502 163.79 44.6343Z" fill="white"/>
<path opacity="0.1" d="M171.527 54.7055C169.995 56.7119 168.024 58.3407 165.766 59.467C163.507 60.5932 161.02 61.187 158.496 61.2026C156.048 61.2234 153.633 60.6416 151.463 59.5085C149.294 58.3755 147.436 56.726 146.055 54.7055C149.042 51.7305 153.769 49.7881 159.006 49.7881C164.243 49.7881 168.804 51.7305 171.527 54.7055Z" fill="white"/>
<path d="M81.0897 97.1242C80.5057 98.4027 79.8911 99.8103 79.3563 101.175C78.8215 102.539 78.2745 103.947 77.8012 105.349C76.8348 108.11 76.0988 110.948 75.6006 113.831L75.4654 114.735C75.4525 114.89 75.4671 115.046 75.5084 115.196C75.6535 115.705 75.882 116.187 76.1846 116.622C76.9739 117.747 77.8896 118.778 78.9137 119.695C79.9935 120.699 81.1261 121.645 82.3067 122.529C83.4869 123.438 84.7286 124.324 85.9518 125.159L84.8023 127.317C81.8815 126.044 79.1091 124.455 76.5349 122.578C75.1616 121.576 73.9222 120.403 72.8469 119.086C72.2095 118.303 71.7125 117.415 71.3778 116.462C71.1832 115.866 71.0836 115.244 71.0828 114.618C71.0828 114.47 71.0828 114.255 71.0828 114.151V113.849L71.1442 113.235C71.4966 110.032 72.17 106.873 73.1542 103.806C73.6337 102.294 74.1438 100.788 74.7278 99.3185C75.3117 97.8495 75.9141 96.4111 76.6579 94.9175L81.0897 97.1242Z" fill="#E58A7B"/>
<path d="M85.0852 124.778L89.4309 122.578L88.3061 127.348C88.3061 127.348 85.3249 128.184 83.9419 126.733L85.0852 124.778Z" fill="#E58A7B"/>
<path d="M93.4077 123.359L92.2521 127.305L88.3059 127.348L89.4308 122.578L93.4077 123.359Z" fill="#E58A7B"/>
<path d="M99.5423 74.1106C99.7748 74.9624 100.098 75.7868 100.507 76.5693C100.388 76.7048 100.234 76.8055 100.062 76.8607C99.8898 76.9159 99.7061 76.9235 99.53 76.8828L99.5423 74.1106Z" fill="#DF5753"/>
<path d="M99.4132 74.1476C99.6678 74.1476 99.8742 73.8312 99.8742 73.4408C99.8742 73.0504 99.6678 72.7339 99.4132 72.7339C99.1585 72.7339 98.9521 73.0504 98.9521 73.4408C98.9521 73.8312 99.1585 74.1476 99.4132 74.1476Z" fill="#263238"/>
<path d="M99.2778 72.7585L100.212 72.4941C100.212 72.4941 99.7573 73.2195 99.2778 72.7585Z" fill="#263238"/>
<path d="M87.5377 78.6223C88.0971 81.4806 88.6564 86.7237 86.6526 88.6354C86.6526 88.6354 87.4394 91.5366 92.7563 91.5366C98.6019 91.5366 95.5469 88.6354 95.5469 88.6354C92.3568 87.8732 92.4367 85.5067 92.996 83.2816L87.5377 78.6223Z" fill="#E58A7B"/>
<path d="M85.9825 72.1068C86.2776 76.8828 86.3021 78.9113 88.7117 81.3638C92.3444 85.0519 98.1469 83.6504 99.2841 78.9051C100.311 74.6024 99.659 67.5213 94.9814 65.622C93.9546 65.199 92.8369 65.0449 91.734 65.1744C90.631 65.3038 89.5794 65.7125 88.6785 66.3617C87.7775 67.011 87.0571 67.8793 86.5854 68.8846C86.1136 69.8899 85.9061 70.9989 85.9825 72.1068Z" fill="#E58A7B"/>
<path d="M86.4557 66.7347C84.0585 67.6075 80.8622 66.956 82.1161 74.3505C83.4438 82.1815 81.4031 84.7569 81.4031 84.7569C81.4031 84.7569 90.4941 86.6932 99.7757 84.6402C99.7757 84.6402 96.9421 79.6859 97.735 76.0347C98.7492 71.4246 97.9501 69.722 97.9501 69.722C97.9501 69.722 89.8241 65.5053 86.4557 66.7347Z" fill="#263238"/>
<path d="M96.5979 74.5963C96.6004 75.5044 96.8604 76.3932 97.3478 77.1595C97.9994 78.1553 98.7677 77.7742 98.9583 76.7169C99.1304 75.7888 99.0013 74.1476 98.1715 73.5083C97.3417 72.8691 96.6102 73.496 96.5979 74.5963Z" fill="#E58A7B"/>
<path d="M84.3719 67.5398C83.6835 65.6036 86.9659 62.6224 93.9117 63.8518C100.858 65.0811 101.159 70.8652 101.159 70.8652L99.7573 69.1933L99.8187 70.9513L92.6824 72.322L84.3719 67.5398Z" fill="#263238"/>
<path d="M84.9621 88.9613C84.9211 88.6807 84.9913 88.3951 85.1578 88.1655C85.3243 87.9358 85.5739 87.7803 85.8534 87.732C88.017 87.3755 92.9344 86.6502 95.4054 86.9944C97.2495 87.2526 97.7289 88.3221 97.8088 89.2011C97.8213 89.355 97.8007 89.5098 97.7485 89.6551C97.6962 89.8004 97.6134 89.9328 97.5056 90.0434C97.3979 90.1541 97.2678 90.2404 97.1239 90.2965C96.9801 90.3527 96.8259 90.3774 96.6717 90.369L85.9886 89.8895C85.7368 89.8768 85.497 89.7775 85.31 89.6083C85.1229 89.4392 85 89.2107 84.9621 88.9613Z" fill="#4CAF4F"/>
<path opacity="0.6" d="M84.9621 88.9613C84.9211 88.6807 84.9913 88.3951 85.1578 88.1655C85.3243 87.9358 85.5739 87.7803 85.8534 87.732C88.017 87.3755 92.9344 86.6502 95.4054 86.9944C97.2495 87.2526 97.7289 88.3221 97.8088 89.2011C97.8213 89.355 97.8007 89.5098 97.7485 89.6551C97.6962 89.8004 97.6134 89.9328 97.5056 90.0434C97.3979 90.1541 97.2678 90.2404 97.1239 90.2965C96.9801 90.3527 96.8259 90.3774 96.6717 90.369L85.9886 89.8895C85.7368 89.8768 85.497 89.7775 85.31 89.6083C85.1229 89.4392 85 89.2107 84.9621 88.9613Z" fill="black"/>
<path d="M91.1396 196.345L95.1043 199.099L101.737 190.106L97.772 187.358L91.1396 196.345Z" fill="#E58A7B"/>
<path d="M81.895 196.167L86.081 198.552L91.9511 189.043L87.7652 186.658L81.895 196.167Z" fill="#E58A7B"/>
<path d="M101.73 190.106L98.3128 194.741L94.3481 191.993L97.7657 187.358L101.73 190.106Z" fill="#CF6F64"/>
<path d="M87.7588 186.658L91.9509 189.049L88.9267 193.948L84.7346 191.557L87.7588 186.658Z" fill="#CF6F64"/>
<path d="M94.4835 118.982C94.4835 118.982 109.961 138.486 107.054 157.141C104.712 172.207 91.1274 192.608 91.1274 192.608L84.7409 189.436C89.2425 180.416 93.084 171.081 96.2354 161.505C97.2071 158.532 97.4908 155.377 97.0648 152.279C96.6389 149.18 95.5146 146.219 93.7767 143.618C85.9334 132.167 73.3694 138.983 81.8212 118.982H94.4835Z" fill="#4CAF4F"/>
<path opacity="0.6" d="M94.4835 118.982C94.4835 118.982 109.961 138.486 107.054 157.141C104.712 172.207 91.1274 192.608 91.1274 192.608L84.7409 189.436C89.2425 180.416 93.084 171.081 96.2354 161.505C97.2071 158.532 97.4908 155.377 97.0648 152.279C96.6389 149.18 95.5146 146.219 93.7767 143.618C85.9334 132.167 73.3694 138.983 81.8212 118.982H94.4835Z" fill="black"/>
<path opacity="0.4" d="M102.075 131.509L99.825 129.272C99.825 129.45 104.183 156.354 105.406 163.915C106.128 161.706 106.681 159.446 107.06 157.153C108.498 148.001 105.492 138.652 102.075 131.509Z" fill="black"/>
<path d="M101.392 118.982C101.392 118.982 120.029 143.495 120.558 158.192C120.994 170.486 100.274 194.304 100.274 194.304L94.2499 190.407C94.2499 190.407 106.377 173.491 109.432 159.673C108.252 145.978 83.2964 118.982 83.2964 118.982H101.392Z" fill="#4CAF4F"/>
<path opacity="0.6" d="M101.392 118.982C101.392 118.982 120.029 143.495 120.558 158.192C120.994 170.486 100.274 194.304 100.274 194.304L94.2499 190.407C94.2499 190.407 106.377 173.491 109.432 159.673C108.252 145.978 83.2964 118.982 83.2964 118.982H101.392Z" fill="black"/>
<path d="M78.336 89.7296C76.3445 90.2029 74.4329 97.4438 74.4329 97.4438L82.2208 102.644C82.2208 102.644 84.8147 96.9151 83.905 94.4073C82.9646 91.7949 80.8378 89.1334 78.336 89.7296Z" fill="#4CAF4F"/>
<path opacity="0.2" d="M79.8603 94.395L79.3193 100.708L82.2145 102.65C83.0138 100.85 83.6057 98.9656 83.9786 97.032L79.8603 94.395Z" fill="black"/>
<path d="M103.697 89.871C103.697 89.871 105.996 90.6763 101.392 118.976H81.8089C82.1408 110.985 82.1469 106.068 78.3359 89.7297C81.0781 89.1646 83.8575 88.7989 86.6525 88.6356C89.6135 88.4232 92.5859 88.4232 95.5468 88.6356C99.3701 88.9859 103.697 89.871 103.697 89.871Z" fill="#4CAF4F"/>
<path d="M105.689 94.3951C106.132 95.6244 106.599 96.946 107.09 98.2183C107.582 99.4907 108.049 100.8 108.547 102.091L110.053 105.951L110.434 106.916L110.631 107.395L110.723 107.635C110.723 107.678 110.723 107.678 110.723 107.672C110.611 107.514 110.464 107.383 110.293 107.291C110.05 107.148 109.776 107.066 109.494 107.051C109.26 107.044 109.027 107.088 108.812 107.18C108.529 107.309 108.529 107.365 108.535 107.359C108.586 107.318 108.632 107.27 108.67 107.217C109.01 106.77 109.305 106.291 109.549 105.785C109.838 105.219 110.115 104.617 110.391 104.009C110.932 102.779 111.43 101.507 111.928 100.222C112.426 98.9375 112.899 97.6405 113.36 96.3313L114.762 92.4097L117.128 93.0243C116.661 95.8273 116.059 98.5564 115.333 101.335C114.983 102.718 114.571 104.088 114.104 105.472C113.87 106.166 113.612 106.855 113.317 107.561C113.01 108.329 112.631 109.065 112.186 109.762C112.023 109.996 111.842 110.218 111.645 110.426C111.331 110.765 110.95 111.035 110.527 111.219C110.15 111.38 109.743 111.456 109.334 111.44C108.876 111.423 108.43 111.29 108.037 111.053C107.574 110.764 107.19 110.365 106.918 109.891C106.826 109.731 106.746 109.571 106.691 109.455L106.574 109.221L106.341 108.742L105.873 107.789C105.259 106.51 104.644 105.219 104.109 103.923C103.575 102.626 103.009 101.31 102.48 99.9886C101.952 98.6671 101.478 97.3455 101.03 95.9195L105.689 94.3951Z" fill="#E58A7B"/>
<path d="M103.697 89.8709C106.052 90.4303 108.701 97.3884 108.701 97.3884L101.7 103.345C101.7 103.345 97.1695 95.7595 98.0854 93.2578C99.0381 90.6516 100.624 89.1395 103.697 89.8709Z" fill="#4CAF4F"/>
<path d="M115.874 90.209L118.333 88.156L120.042 90.8175L118.782 93.0365C118.782 93.0365 116.778 94.8805 115.008 93.9401C114.727 93.3085 114.659 92.6026 114.816 91.9293C114.972 91.256 115.344 90.652 115.874 90.209Z" fill="#E58A7B"/>
<path d="M122.771 88.1621L122.586 88.8321L118.696 89.4837L118.314 88.156L122.771 88.1621Z" fill="#E58A7B"/>
<path d="M100.753 194.618L93.7336 190.082L94.9937 187.893L102.88 192.743L100.753 194.618Z" fill="#4CAF4F"/>
<path d="M88.8284 198.232C88.2125 198.157 87.6207 197.947 87.095 197.617C87.0733 197.61 87.0545 197.596 87.0412 197.577C87.0279 197.558 87.0208 197.536 87.0208 197.513C87.0208 197.49 87.0279 197.468 87.0412 197.449C87.0545 197.43 87.0733 197.416 87.095 197.408C87.2856 197.347 88.9391 196.837 89.4185 197.23C89.4724 197.275 89.5133 197.333 89.5371 197.399C89.5609 197.465 89.5666 197.536 89.5537 197.605C89.5452 197.716 89.5085 197.822 89.4472 197.915C89.3859 198.007 89.302 198.083 89.2034 198.134C89.0883 198.197 88.9595 198.23 88.8284 198.232ZM87.4454 197.556C88.2137 197.949 88.8284 198.091 89.1235 197.943C89.1877 197.908 89.2418 197.856 89.2805 197.794C89.3192 197.731 89.3414 197.66 89.3447 197.587C89.3447 197.488 89.3447 197.445 89.2894 197.421C89.0313 197.212 88.1092 197.372 87.4331 197.556H87.4454Z" fill="#263238"/>
<path d="M87.1381 197.66C87.1057 197.66 87.0747 197.647 87.052 197.624C87.0429 197.607 87.0381 197.588 87.0381 197.568C87.0381 197.549 87.0429 197.53 87.052 197.513C87.052 197.458 87.4516 196.124 88.0785 195.823C88.1586 195.786 88.2456 195.767 88.3336 195.767C88.4216 195.767 88.5086 195.786 88.5887 195.823C88.675 195.85 88.7498 195.905 88.801 195.98C88.8522 196.054 88.877 196.144 88.8715 196.234C88.8284 196.788 87.7036 197.55 87.1873 197.679L87.1381 197.66ZM88.3305 195.982C88.2708 195.984 88.2121 195.999 88.1584 196.025C87.7773 196.21 87.4639 196.929 87.3102 197.365C87.8511 197.138 88.5949 196.536 88.6194 196.197C88.6194 196.142 88.6194 196.075 88.4781 196.013C88.4321 195.988 88.3822 195.972 88.3305 195.964V195.982Z" fill="#263238"/>
<path d="M97.5999 200.887C96.9053 200.887 95.9403 199.996 95.4116 199.449C95.3981 199.43 95.3909 199.408 95.3909 199.384C95.3909 199.361 95.3981 199.339 95.4116 199.32C95.4238 199.3 95.441 199.284 95.4616 199.273C95.4821 199.262 95.5052 199.257 95.5284 199.258C95.7743 199.258 97.9072 199.578 98.2084 200.18C98.2403 200.234 98.2571 200.296 98.2571 200.359C98.2571 200.421 98.2403 200.483 98.2084 200.537C98.1632 200.631 98.095 200.712 98.0101 200.772C97.9251 200.832 97.8263 200.87 97.7228 200.881L97.5999 200.887ZM95.8173 199.535C96.5918 200.285 97.2741 200.703 97.6613 200.654C97.7292 200.645 97.7938 200.62 97.8495 200.58C97.9052 200.54 97.9504 200.488 97.981 200.426C97.9947 200.405 98.0021 200.381 98.0021 200.356C98.0021 200.331 97.9947 200.306 97.981 200.285C97.8212 199.953 96.684 199.67 95.8173 199.535Z" fill="#263238"/>
<path d="M95.8849 199.504C95.7469 199.508 95.6089 199.498 95.4731 199.474C95.4541 199.471 95.4362 199.463 95.4211 199.451C95.406 199.439 95.3943 199.424 95.387 199.406C95.3778 199.388 95.373 199.368 95.373 199.348C95.373 199.327 95.3778 199.307 95.387 199.289C95.4239 199.246 96.2537 198.244 97.0405 198.177C97.2632 198.159 97.4839 198.23 97.6552 198.373C97.8949 198.582 97.8826 198.767 97.8211 198.884C97.6675 199.301 96.6041 199.504 95.8849 199.504ZM95.7251 199.277C96.4135 199.314 97.5138 199.086 97.6552 198.785C97.6552 198.785 97.7043 198.687 97.5445 198.552C97.4809 198.496 97.4066 198.455 97.3263 198.429C97.2459 198.404 97.1612 198.395 97.0774 198.404C96.5474 198.552 96.0754 198.859 95.7251 199.283V199.277Z" fill="#263238"/>
<path d="M87.304 196.996L82.0915 195.521C82.0017 195.494 81.9049 195.501 81.8199 195.541C81.7348 195.58 81.6673 195.65 81.6305 195.736L79.8725 199.689C79.8312 199.79 79.8119 199.899 79.8157 200.008C79.8194 200.117 79.8463 200.225 79.8945 200.323C79.9427 200.421 80.0111 200.508 80.0953 200.577C80.1794 200.647 80.2774 200.698 80.3827 200.728C82.2267 201.207 83.1119 201.342 85.4046 202C86.8184 202.393 88.8345 203.125 90.783 203.678C92.7315 204.231 93.3831 202.332 92.627 201.926C89.2094 200.119 88.939 198.853 88.0047 197.501C87.8373 197.256 87.5894 197.077 87.304 196.996Z" fill="#4CAF4F"/>
<path d="M95.5529 198.73L91.1027 195.657C91.0272 195.602 90.9342 195.576 90.8413 195.585C90.7484 195.594 90.6621 195.637 90.5987 195.706L87.6482 198.877C87.5763 198.959 87.5227 199.056 87.4909 199.16C87.4591 199.264 87.4499 199.374 87.4638 199.482C87.4778 199.591 87.5146 199.694 87.5718 199.787C87.6291 199.88 87.7054 199.96 87.7957 200.021C89.3632 201.072 90.1745 201.496 92.1353 202.854C93.3647 203.69 95.7435 205.547 97.4031 206.702C99.0627 207.858 100.298 206.272 99.7081 205.645C97.065 202.824 96.4872 201.053 96.0508 199.449C95.9751 199.158 95.7987 198.903 95.5529 198.73Z" fill="#4CAF4F"/>
<path d="M91.9449 193.013L83.9233 189.024L84.7531 186.848L93.3217 191.053L91.9449 193.013Z" fill="#4CAF4F"/>
<path d="M81.5138 117.826L80.8377 119.597C80.7701 119.732 80.9299 119.873 81.1573 119.873H101.491C101.669 119.873 101.817 119.787 101.829 119.676L102.001 117.918C102.001 117.802 101.86 117.697 101.669 117.697H81.8334C81.7737 117.692 81.7135 117.7 81.6579 117.723C81.6023 117.745 81.5529 117.781 81.5138 117.826Z" fill="#4CAF4F"/>
<path opacity="0.4" d="M81.5138 117.826L80.8377 119.597C80.7701 119.732 80.9299 119.873 81.1573 119.873H101.491C101.669 119.873 101.817 119.787 101.829 119.676L102.001 117.918C102.001 117.802 101.86 117.697 101.669 117.697H81.8334C81.7737 117.692 81.7135 117.7 81.6579 117.723C81.6023 117.745 81.5529 117.781 81.5138 117.826Z" fill="white"/>
<path d="M84.7163 120.045H84.1815C84.077 120.045 83.9971 119.99 84.0033 119.922L84.2553 117.642C84.2553 117.58 84.3536 117.525 84.4581 117.525H84.9929C85.0974 117.525 85.1773 117.58 85.1712 117.642L84.9191 119.922C84.913 119.99 84.8208 120.045 84.7163 120.045Z" fill="#4CAF4F"/>
<path d="M97.2556 120.045H96.7269C96.6224 120.045 96.5425 119.99 96.5487 119.922L96.7945 117.642C96.7945 117.58 96.899 117.525 97.0035 117.525H97.5322C97.6367 117.525 97.7227 117.58 97.7104 117.642L97.4645 119.922C97.4338 119.99 97.3662 120.045 97.2556 120.045Z" fill="#4CAF4F"/>
<g style="mix-blend-mode:multiply">
<path d="M84.2491 224.141C93.3437 224.141 100.716 223.607 100.716 222.948C100.716 222.29 93.3437 221.756 84.2491 221.756C75.1546 221.756 67.782 222.29 67.782 222.948C67.782 223.607 75.1546 224.141 84.2491 224.141Z" fill="#F5F5F5"/>
</g>
<path d="M94.2806 221.264C91.3671 220.416 88.1339 219.328 86.1792 218.191C86.1239 218.154 86.0624 218.135 86.0071 218.105V204.914H91.9018C92.3493 204.887 92.7698 204.691 93.0772 204.365C93.3847 204.038 93.5559 203.607 93.5559 203.159C93.5559 202.711 93.3847 202.279 93.0772 201.953C92.7698 201.627 92.3493 201.43 91.9018 201.404H86.0378V141.276H82.4973V201.404H76.6395C76.4003 201.39 76.1607 201.425 75.9355 201.506C75.7103 201.588 75.5041 201.715 75.3298 201.88C75.1554 202.044 75.0165 202.242 74.9215 202.462C74.8266 202.682 74.7776 202.919 74.7776 203.159C74.7776 203.398 74.8266 203.635 74.9215 203.855C75.0165 204.075 75.1554 204.274 75.3298 204.438C75.5041 204.602 75.7103 204.729 75.9355 204.811C76.1607 204.893 76.4003 204.928 76.6395 204.914H82.4973V218.086C82.442 218.086 82.3867 218.135 82.3314 218.172C80.3459 219.328 77.1373 220.416 74.2238 221.246C74.027 221.305 73.858 221.433 73.7474 221.606C73.6368 221.78 73.5919 221.987 73.6209 222.191C73.6499 222.394 73.7508 222.581 73.9053 222.716C74.0599 222.852 74.2579 222.928 74.4635 222.93H94.0409C94.2374 222.916 94.4233 222.836 94.5677 222.702C94.7121 222.568 94.8061 222.389 94.8342 222.194C94.8622 221.999 94.8226 221.8 94.7218 221.631C94.6211 221.462 94.4654 221.332 94.2806 221.264Z" fill="#E0E0E0"/>
<path d="M95.1842 135.154H73.3264C71.5679 135.154 70.1423 136.58 70.1423 138.338V144.835C70.1423 146.594 71.5679 148.019 73.3264 148.019H95.1842C96.9427 148.019 98.3682 146.594 98.3682 144.835V138.338C98.3682 136.58 96.9427 135.154 95.1842 135.154Z" fill="#4CAF4F"/>
<path d="M73.1235 148.025V149.144C73.1235 150.066 74.1255 150.816 75.3548 150.816H93.1804C94.4097 150.816 95.4117 150.066 95.4117 149.144V148.025H73.1235Z" fill="#4CAF4F"/>
<path opacity="0.3" d="M73.1235 148.025V149.144C73.1235 150.066 74.1255 150.816 75.3548 150.816H93.1804C94.4097 150.816 95.4117 150.066 95.4117 149.144V148.025H73.1235Z" fill="white"/>
</svg>
