<svg width="78" height="15" viewBox="0 0 78 15" fill="none" xmlns="http://www.w3.org/2000/svg">
<path d="M12.021 0.190918V14.3654H9.43245L3.26571 5.44407H3.1619V14.3654H0.165039V0.190918H2.79507L8.91337 9.10535H9.03795V0.190918H12.021Z" fill="#263238"/>
<path d="M19.2864 14.5731C18.1929 14.5731 17.2516 14.3516 16.4626 13.9086C15.6782 13.4611 15.0738 12.8289 14.6493 12.0122C14.2248 11.1909 14.0125 10.2197 14.0125 9.09843C14.0125 8.00489 14.2248 7.04516 14.6493 6.21924C15.0738 5.39331 15.6713 4.74965 16.4418 4.28824C17.217 3.82683 18.126 3.59612 19.1688 3.59612C19.8701 3.59612 20.523 3.70917 21.1275 3.93526C21.7365 4.15673 22.2671 4.49126 22.7193 4.93882C23.1761 5.38639 23.5314 5.94931 23.7852 6.62758C24.039 7.30124 24.1658 8.09025 24.1658 8.99461V9.80439H15.1891V7.97721H21.3905C21.3905 7.55271 21.2982 7.17666 21.1136 6.84906C20.9291 6.52146 20.673 6.26538 20.3454 6.08081C20.0224 5.89163 19.6463 5.79705 19.2172 5.79705C18.7697 5.79705 18.3728 5.90086 18.0268 6.1085C17.6853 6.31152 17.4177 6.58606 17.2239 6.93211C17.0301 7.27356 16.9309 7.65422 16.9263 8.0741V9.81131C16.9263 10.3373 17.0232 10.7918 17.217 11.1748C17.4154 11.5577 17.6946 11.853 18.0545 12.0607C18.4144 12.2683 18.8412 12.3721 19.3349 12.3721C19.6625 12.3721 19.9624 12.326 20.2346 12.2337C20.5069 12.1414 20.7399 12.003 20.9337 11.8184C21.1275 11.6339 21.2751 11.4078 21.3766 11.1402L24.1036 11.3201C23.9651 11.9753 23.6814 12.5475 23.2522 13.0366C22.8278 13.521 22.2787 13.8994 21.605 14.1716C20.936 14.4392 20.1631 14.5731 19.2864 14.5731Z" fill="#263238"/>
<path d="M28.3635 3.73454L30.3153 7.4512L32.3155 3.73454H35.34L32.2601 9.04998L35.4231 14.3654H32.4124L30.3153 10.6903L28.2528 14.3654H25.2075L28.3635 9.04998L25.3182 3.73454H28.3635Z" fill="#263238"/>
<path d="M41.5137 14.5731C40.4248 14.5731 39.4881 14.3424 38.7037 13.8809C37.9239 13.4149 37.3241 12.7689 36.9042 11.943C36.4889 11.1171 36.2813 10.1666 36.2813 9.09151C36.2813 8.00258 36.4912 7.04747 36.9111 6.22616C37.3356 5.40023 37.9378 4.75657 38.7175 4.29516C39.4973 3.82913 40.4248 3.59612 41.4998 3.59612C42.4273 3.59612 43.2394 3.76454 43.9361 4.10136C44.6328 4.43819 45.1842 4.91114 45.5902 5.5202C45.9963 6.12926 46.2201 6.84445 46.2616 7.66576H43.4793C43.4009 7.13513 43.1932 6.70833 42.8564 6.38534C42.5242 6.05774 42.0881 5.89394 41.5483 5.89394C41.0915 5.89394 40.6924 6.01852 40.3509 6.26768C40.0141 6.51223 39.7511 6.86982 39.5619 7.34046C39.3727 7.8111 39.2782 8.38094 39.2782 9.04998C39.2782 9.72826 39.3704 10.305 39.555 10.7803C39.7442 11.2555 40.0095 11.6177 40.3509 11.8669C40.6924 12.1161 41.0915 12.2406 41.5483 12.2406C41.8851 12.2406 42.1874 12.1714 42.455 12.033C42.7272 11.8946 42.951 11.6939 43.1263 11.4309C43.3063 11.1632 43.4239 10.8426 43.4793 10.4688H46.2616C46.2155 11.2809 45.994 11.9961 45.5972 12.6144C45.205 13.228 44.6628 13.7079 43.9707 14.054C43.2786 14.4 42.4596 14.5731 41.5137 14.5731Z" fill="#263238"/>
<path d="M52.9941 14.5731C51.9006 14.5731 50.9593 14.3516 50.1703 13.9086C49.3859 13.4611 48.7815 12.8289 48.357 12.0122C47.9325 11.1909 47.7202 10.2197 47.7202 9.09843C47.7202 8.00489 47.9325 7.04516 48.357 6.21924C48.7815 5.39331 49.379 4.74965 50.1495 4.28824C50.9247 3.82683 51.8337 3.59612 52.8765 3.59612C53.5778 3.59612 54.2307 3.70917 54.8352 3.93526C55.4442 4.15673 55.9748 4.49126 56.427 4.93882C56.8838 5.38639 57.2391 5.94931 57.4929 6.62758C57.7467 7.30124 57.8735 8.09025 57.8735 8.99461V9.80439H48.8968V7.97721H55.0982C55.0982 7.55271 55.0059 7.17666 54.8213 6.84906C54.6368 6.52146 54.3807 6.26538 54.0531 6.08081C53.7301 5.89163 53.354 5.79705 52.9249 5.79705C52.4774 5.79705 52.0806 5.90086 51.7345 6.1085C51.393 6.31152 51.1254 6.58606 50.9316 6.93211C50.7378 7.27356 50.6386 7.65422 50.634 8.0741V9.81131C50.634 10.3373 50.7309 10.7918 50.9247 11.1748C51.1231 11.5577 51.4023 11.853 51.7622 12.0607C52.1221 12.2683 52.5489 12.3721 53.0426 12.3721C53.3702 12.3721 53.6701 12.326 53.9423 12.2337C54.2146 12.1414 54.4476 12.003 54.6414 11.8184C54.8352 11.6339 54.9828 11.4078 55.0843 11.1402L57.8113 11.3201C57.6728 11.9753 57.3891 12.5475 56.96 13.0366C56.5355 13.521 55.9864 13.8994 55.3127 14.1716C54.6437 14.4392 53.8708 14.5731 52.9941 14.5731Z" fill="#263238"/>
<path d="M62.746 8.21945V14.3654H59.7976V3.73454H62.6076V5.61018H62.7322C62.9675 4.99189 63.362 4.50279 63.9157 4.14289C64.4694 3.77838 65.1407 3.59612 65.9298 3.59612C66.668 3.59612 67.3117 3.75762 67.8608 4.0806C68.4098 4.40359 68.8366 4.865 69.1412 5.46483C69.4457 6.06005 69.598 6.77062 69.598 7.59654V14.3654H66.6496V8.12255C66.6542 7.47196 66.4881 6.96441 66.1512 6.5999C65.8144 6.23077 65.3507 6.04621 64.7601 6.04621C64.3633 6.04621 64.0126 6.13157 63.7081 6.30229C63.4082 6.47301 63.1728 6.72217 63.0021 7.04977C62.836 7.37276 62.7506 7.76265 62.746 8.21945Z" fill="#263238"/>
<path d="M77.5763 3.73454V5.94931H71.1743V3.73454H77.5763ZM72.6277 1.18756H75.5761V11.0986C75.5761 11.3709 75.6176 11.5831 75.7007 11.7354C75.7837 11.883 75.8991 11.9869 76.0467 12.0468C76.199 12.1068 76.3743 12.1368 76.5728 12.1368C76.7112 12.1368 76.8496 12.1253 76.988 12.1022C77.1264 12.0745 77.2326 12.0538 77.3064 12.0399L77.7701 14.2339C77.6225 14.2801 77.4148 14.3331 77.1472 14.3931C76.8796 14.4577 76.5543 14.4969 76.1713 14.5108C75.4608 14.5385 74.8378 14.4439 74.3026 14.227C73.772 14.0101 73.359 13.6733 73.0637 13.2165C72.7684 12.7597 72.6231 12.183 72.6277 11.4862V1.18756Z" fill="#263238"/>
</svg>
