<svg width="34" height="34" viewBox="0 0 34 34" fill="none" xmlns="http://www.w3.org/2000/svg">
<g clip-path="url(#clip0_211_2049)">
<path fill-rule="evenodd" clip-rule="evenodd" d="M10.0458 10.0833L3.09497 16.9642C4.48526 18.3405 6.07345 19.5005 7.80502 20.4079C8.28364 21.6648 9.03386 22.8434 10.0557 23.8549C13.9 27.6606 20.1328 27.6606 23.9771 23.8549C24.9989 22.8434 25.7491 21.6648 26.2277 20.4079C27.9593 19.5005 29.5475 18.3405 30.9377 16.9642L23.9926 10.0889C23.9874 10.0838 23.9823 10.0786 23.9771 10.0735C20.1328 6.26783 13.9 6.26783 10.0557 10.0735C10.0524 10.0767 10.0491 10.08 10.0458 10.0833ZM23.312 21.6494C21.2864 22.3261 19.16 22.6727 17.0164 22.6727C14.8727 22.6727 12.7464 22.3261 10.7208 21.6494C10.9403 21.9376 11.1826 22.2142 11.4478 22.4768C14.5232 25.5213 19.5095 25.5213 22.5849 22.4768C22.8501 22.2142 23.0925 21.9376 23.312 21.6494ZM11.5906 11.3138C12.1128 11.6554 12.6682 11.9476 13.2492 12.1859C14.4435 12.6757 15.7236 12.9277 17.0164 12.9277C18.3091 12.9277 19.5892 12.6757 20.7835 12.1859C21.3646 11.9476 21.9199 11.6554 22.4422 11.3138C19.4051 8.45304 14.6276 8.45305 11.5906 11.3138Z" fill="#3B4158"/>
</g>
<defs>
<clipPath id="clip0_211_2049">
<rect width="27.8428" height="19.4899" fill="white" transform="translate(3.09497 7.21924)"/>
</clipPath>
</defs>
</svg>
