<svg width="39" height="34" viewBox="0 0 39 34" fill="none" xmlns="http://www.w3.org/2000/svg">
<g clip-path="url(#clip0_211_2052)">
<path d="M38.5802 13.95C38.5841 13.921 38.5841 13.8916 38.5802 13.8626C38.5839 13.839 38.5839 13.8149 38.5802 13.7912L38.2965 11.7498C38.2556 11.5056 38.1462 11.2773 37.9806 11.0906L37.9319 11.035L37.8429 10.9476L32.9331 6.80139L33.0708 6.93643C32.9581 6.80426 32.8167 6.69854 32.6569 6.62706C32.497 6.55558 32.3228 6.52016 32.1472 6.5234H30.6564C30.414 6.51869 30.1771 6.59425 29.984 6.73786C29.7811 6.59512 29.5369 6.51994 29.2872 6.5234H27.7964C27.6009 6.52029 27.408 6.56786 27.2373 6.66131C27.0666 6.75476 26.9241 6.89077 26.8242 7.05557C26.6702 7.29095 26.6124 7.57454 26.6621 7.84986L26.8485 9.13661C26.725 9.068 26.5853 9.0324 26.4434 9.03336H19.2246C18.9655 9.03495 18.7125 9.10938 18.4954 9.24781C18.2854 9.37666 18.1168 9.56117 18.0093 9.77998L17.4502 9.31135C17.2302 9.11177 16.9398 9.00359 16.64 9.00953H5.31348C5.05356 9.01417 4.79941 9.08536 4.57622 9.21604C4.27087 9.39125 4.0471 9.67614 3.95235 10.0103L0.355083 21.8055C0.287869 21.9999 0.281257 22.2095 0.336094 22.4076C0.390931 22.6056 0.504733 22.7832 0.662961 22.9176C0.704191 22.9518 0.747482 22.9837 0.792595 23.0128C0.792595 23.0128 0.719666 22.9652 0.679156 22.9255L5.58897 27.0796C5.79666 27.2671 6.06821 27.3719 6.3505 27.3735H17.7662C18.0269 27.3669 18.2812 27.2929 18.5035 27.159C18.6292 27.0917 18.7416 27.0029 18.8357 26.8969L18.8762 26.8413L18.941 26.7619L18.9896 26.6745L19.5243 27.1273C19.729 27.3073 19.9947 27.4063 20.2697 27.4053H31.7097C31.9701 27.3968 32.2239 27.323 32.4469 27.1908C32.5698 27.1193 32.6816 27.0311 32.7792 26.9287L32.8196 26.8731L32.8844 26.7937C32.9189 26.7434 32.9488 26.6903 32.9735 26.6348C33 26.5866 33.0217 26.5361 33.0384 26.4839L36.3197 15.7133V15.618C36.3237 15.5811 36.3237 15.5438 36.3197 15.5068V15.4354C36.3236 15.4117 36.3236 15.3875 36.3197 15.3638C36.3233 15.3136 36.3233 15.2632 36.3197 15.2129H37.3729C37.4646 15.2212 37.5568 15.2212 37.6484 15.2129H37.7213C37.7806 15.1956 37.8377 15.1716 37.8915 15.1414H37.9725L38.1183 15.0302L38.1831 14.9826L38.2965 14.8396V14.792L38.3776 14.6569C38.3731 14.6307 38.3731 14.6038 38.3776 14.5775C38.3733 14.5646 38.3733 14.5507 38.3776 14.5378C38.3948 14.4912 38.4084 14.4434 38.4181 14.3948C38.4143 14.3791 38.4143 14.3628 38.4181 14.3471C38.4142 14.3235 38.4142 14.2993 38.4181 14.2757C38.4181 14.2757 38.5802 13.9659 38.5802 13.95Z" fill="black"/>
<path d="M16.9722 9.91505C17.0152 9.95318 17.0453 10.0033 17.0583 10.0587C17.0714 10.1141 17.0668 10.1721 17.0452 10.2248L13.456 22.0121C13.4108 22.1408 13.3183 22.2484 13.1967 22.3139C13.0978 22.3788 12.9833 22.4171 12.8645 22.4251H1.45699C1.35957 22.4205 1.26727 22.381 1.19772 22.3139C1.15635 22.2764 1.12731 22.2276 1.11432 22.1739C1.10133 22.1201 1.10499 22.0638 1.12481 22.0121L4.72208 10.2248C4.76352 10.0945 4.85308 9.98404 4.97323 9.91505C5.07382 9.85482 5.1878 9.81939 5.30542 9.81179H16.7129C16.8096 9.8127 16.9023 9.84962 16.9722 9.91505ZM11.0173 19.6372L13.1643 12.5997H7.15268L5.01374 19.6372H11.0173ZM27.8612 10.0342C27.9002 10.0785 27.9488 10.1137 28.0035 10.1371C28.0583 10.1605 28.1176 10.1714 28.1772 10.1692H29.6599C29.7164 10.1698 29.772 10.1562 29.8216 10.1298C29.8713 10.1034 29.9132 10.065 29.9435 10.0183C29.9698 9.98182 29.9884 9.94052 29.9981 9.89686C30.0079 9.8532 30.0085 9.80807 30.0001 9.76414L29.7085 7.66721C29.6807 7.57016 29.6309 7.48054 29.5627 7.40509C29.5237 7.36075 29.4751 7.32558 29.4204 7.30221C29.3657 7.27883 29.3063 7.26785 29.2467 7.27006H27.764C27.7076 7.26953 27.6519 7.2831 27.6023 7.30951C27.5527 7.33591 27.5107 7.37428 27.4805 7.42098C27.4237 7.53218 27.3995 7.60367 27.4237 7.66721L27.7235 9.76414C27.7389 9.86624 27.7872 9.96085 27.8612 10.0342ZM32.5685 7.65132C32.5407 7.55427 32.4908 7.46465 32.4227 7.38921C32.3854 7.34503 32.3382 7.30987 32.2848 7.28645C32.2314 7.26304 32.1732 7.25199 32.1148 7.25418H30.624C30.5685 7.25263 30.5136 7.26584 30.4651 7.2924C30.4166 7.31897 30.3763 7.35791 30.3486 7.40509C30.2947 7.47556 30.2713 7.56407 30.2838 7.65132L30.5835 9.74825C30.6023 9.84927 30.6501 9.94295 30.7213 10.0183C30.7609 10.0618 30.8096 10.0964 30.8642 10.1197C30.9187 10.143 30.9777 10.1544 31.0372 10.1533H32.528C32.5834 10.154 32.638 10.1405 32.6863 10.114C32.7347 10.0875 32.7751 10.049 32.8035 10.0024C32.8317 9.96689 32.8513 9.9256 32.8612 9.88162C32.871 9.83765 32.8706 9.79208 32.8602 9.74825L32.5685 7.65132ZM26.5568 10.8285L26.411 9.7959H19.2246C19.1117 9.802 19.0026 9.83766 18.9086 9.89916C18.8489 9.93106 18.797 9.97528 18.7564 10.0288C18.7159 10.0822 18.6876 10.1437 18.6737 10.2089L18.0741 12.1788C18.0502 12.228 18.042 12.2832 18.0506 12.3371C18.0594 12.391 18.0845 12.441 18.1227 12.4806C18.191 12.5436 18.2802 12.5803 18.3739 12.5839H27.1078L24.9608 19.6213H16.2511C16.1388 19.6238 16.0295 19.6568 15.9352 19.7166C15.8206 19.7879 15.7369 19.8982 15.7002 20.0263L15.0926 21.9962C15.0728 22.0467 15.0675 22.1017 15.0775 22.1549C15.0876 22.2082 15.1124 22.2577 15.1493 22.298C15.2155 22.3652 15.3053 22.405 15.4004 22.4092H26.8404C26.9587 22.3992 27.0728 22.3611 27.1726 22.298C27.2922 22.2321 27.382 22.1243 27.4237 21.9962L30.7131 11.2256H27.0106C26.9518 11.2268 26.8935 11.2161 26.8391 11.1942C26.7848 11.1724 26.7356 11.1398 26.6946 11.0985C26.6276 11.0265 26.5802 10.9391 26.5568 10.8444V10.8285Z" fill="white"/>
</g>
<defs>
<clipPath id="clip0_211_2052">
<rect width="38.2838" height="20.8821" fill="white" transform="translate(0.299316 6.52319)"/>
</clipPath>
</defs>
</svg>
