<svg width="37" height="34" viewBox="0 0 37 34" fill="none" xmlns="http://www.w3.org/2000/svg">
<g clip-path="url(#clip0_211_2076)">
<path d="M8.81726 10.0037C7.40373 10.0037 6.04811 10.5652 5.0486 11.5647L1.78662 14.8267C0.787105 15.8262 0.225586 17.1818 0.225586 18.5953C0.225586 21.5389 2.61178 23.9251 5.5553 23.9251C6.96883 23.9251 8.32445 23.3635 9.32396 22.364L11.5803 20.1077C11.5803 20.1076 11.5803 20.1077 11.5803 20.1077L18.1545 13.5335C18.6318 13.0561 19.2793 12.7879 19.9544 12.7879C21.0846 12.7879 22.0428 13.5246 22.375 14.5439L24.4498 12.4691C23.5033 10.9867 21.8436 10.0037 19.9544 10.0037C18.5408 10.0037 17.1852 10.5652 16.1857 11.5647L7.35519 20.3952C6.87783 20.8726 6.23039 21.1408 5.5553 21.1408C4.14949 21.1408 3.00986 20.0012 3.00986 18.5953C3.00986 17.9202 3.27804 17.2728 3.7554 16.7954L7.01737 13.5335C7.49473 13.0561 8.14217 12.7879 8.81726 12.7879C9.94754 12.7879 10.9057 13.5246 11.2379 14.544L13.3128 12.4692C12.3662 10.9867 10.7066 10.0037 8.81726 10.0037Z" fill="#394149"/>
<path d="M18.4924 20.3952C18.0151 20.8726 17.3676 21.1408 16.6925 21.1408C15.5624 21.1408 14.6043 20.4043 14.272 19.3851L12.1973 21.4599C13.1438 22.9422 14.8034 23.9251 16.6925 23.9251C18.1061 23.9251 19.4617 23.3635 20.4612 22.364L29.2917 13.5335C29.7691 13.0561 30.4165 12.7879 31.0916 12.7879C32.4974 12.7879 33.637 13.9276 33.637 15.3334C33.637 16.0085 33.3689 16.6559 32.8915 17.1333L29.6295 20.3952C29.1522 20.8726 28.5047 21.1408 27.8296 21.1408C26.6995 21.1408 25.7413 20.4042 25.409 19.3849L23.3343 21.4597C24.2808 22.9421 25.9404 23.9251 27.8296 23.9251C29.2432 23.9251 30.5988 23.3635 31.5983 22.364L34.8603 19.102C35.8598 18.1025 36.4213 16.7469 36.4213 15.3334C36.4213 12.3899 34.0351 10.0037 31.0916 10.0037C29.6781 10.0037 28.3225 10.5652 27.3229 11.5647L18.4924 20.3952Z" fill="#394149"/>
</g>
<defs>
<clipPath id="clip0_211_2076">
<rect width="36.1956" height="13.9214" fill="white" transform="translate(0.225586 10.0037)"/>
</clipPath>
</defs>
</svg>
