<svg width="34" height="34" viewBox="0 0 34 34" fill="none" xmlns="http://www.w3.org/2000/svg">
<g clip-path="url(#clip0_211_2072)">
<path d="M30.0803 8.50259C30.0803 8.82695 30.3465 9.0899 30.6749 9.0899H31.2694C31.5978 9.0899 31.864 8.82695 31.864 8.50259C31.864 8.17823 31.5978 7.91528 31.2694 7.91528H30.6749C30.3465 7.91528 30.0803 8.17823 30.0803 8.50259Z" fill="#212326"/>
<path d="M12.8381 26.7092H15.7264L14.8856 25.8786C14.6626 25.6583 14.3601 25.5345 14.0448 25.5345H12.8381C8.24101 25.5345 4.51431 21.8533 4.51431 17.3122C4.51431 12.7712 8.24101 9.08991 12.8381 9.0899H22.3511C26.9482 9.0899 30.6749 12.7712 30.6749 17.3122C30.6749 21.8533 26.9482 25.5345 22.3511 25.5345H18.7925C18.3194 25.5345 17.8657 25.3489 17.5312 25.0185L16.5462 24.0454C15.9886 23.4947 15.2325 23.1853 14.444 23.1853H12.8381C9.55446 23.1853 6.89255 20.5559 6.89255 17.3122C6.89255 14.0686 9.55446 11.4391 12.8381 11.4391H22.3511C25.6348 11.4391 28.2967 14.0686 28.2967 17.3122C28.2967 20.5559 25.6348 23.1853 22.3511 23.1853H20.0661C19.5931 23.1853 19.1394 22.9997 18.8049 22.6693L17.8197 21.6962C17.2622 21.1455 16.5061 20.8361 15.7177 20.8361H12.8381C10.868 20.8361 9.27079 19.2584 9.27079 17.3122C9.27079 15.3661 10.868 13.7884 12.8381 13.7884H22.3511C24.3213 13.7884 25.9185 15.3661 25.9185 17.3122C25.9185 19.2346 24.36 20.7975 22.423 20.8354L22.4226 20.8361H21.5525C21.0795 20.8361 20.6258 20.6504 20.2913 20.32L19.3061 19.3469C18.8487 18.895 18.2575 18.6057 17.6245 18.5163L17.5946 18.4868H12.8381C12.1814 18.4868 11.649 17.9609 11.649 17.3122C11.649 16.6635 12.1814 16.1376 12.8381 16.1376H22.3511C23.0078 16.1376 23.5402 16.6635 23.5402 17.3122C23.5402 17.9609 23.0078 18.4868 22.3511 18.4868H19.9729L20.8137 19.3174C21.0367 19.5377 21.3392 19.6615 21.6545 19.6615H22.3511C23.6645 19.6615 24.7293 18.6097 24.7293 17.3122C24.7293 16.0148 23.6645 14.963 22.3511 14.963H12.8381C11.5247 14.963 10.4599 16.0148 10.4599 17.3122C10.4599 18.6097 11.5247 19.6615 12.8381 19.6615H17.2041C17.6771 19.6615 18.1308 19.8471 18.4653 20.1775L19.4505 21.1506C20.008 21.7013 20.7641 22.0107 21.5525 22.0107H22.6484V22.0017C25.1368 21.8501 27.1076 19.8085 27.1076 17.3122C27.1076 14.7174 24.978 12.6138 22.3511 12.6138H12.8381C10.2112 12.6138 8.08167 14.7174 8.08167 17.3122C8.08167 19.9071 10.2112 22.0107 12.8381 22.0107H15.7177C16.1907 22.0107 16.6444 22.1963 16.9789 22.5267L17.9641 23.4998C18.5216 24.0505 19.2777 24.3599 20.0661 24.3599H22.3511C26.2915 24.3599 29.4858 21.2046 29.4858 17.3122C29.4858 13.4199 26.2915 10.2645 22.3511 10.2645H12.8381C8.89774 10.2645 5.70343 13.4199 5.70343 17.3122C5.70343 21.2046 8.89774 24.3599 12.8381 24.3599H14.444C14.9171 24.3599 15.3708 24.5456 15.7053 24.876L16.6904 25.8491C17.2479 26.3998 18.0041 26.7092 18.7925 26.7092H22.3511C27.605 26.7092 31.864 22.502 31.864 17.3122C31.864 12.1224 27.605 7.91528 22.3511 7.91528L12.8381 7.91529C7.58429 7.91529 3.32519 12.1224 3.3252 17.3122C3.3252 22.502 7.58429 26.7092 12.8381 26.7092Z" fill="#212326"/>
</g>
<defs>
<clipPath id="clip0_211_2072">
<rect width="28.5388" height="18.7939" fill="white" transform="translate(3.3252 7.91528)"/>
</clipPath>
</defs>
</svg>
