<svg width="28" height="28" viewBox="0 0 28 28" fill="none" xmlns="http://www.w3.org/2000/svg">
<g clip-path="url(#clip0_211_2047)">
<path fill-rule="evenodd" clip-rule="evenodd" d="M6.97901 0.149414C10.8233 0.149414 13.9397 3.26582 13.9397 7.11011V0.149414H20.9004C24.7446 0.149414 27.8611 3.26582 27.8611 7.11011C27.8611 10.9544 24.7446 14.0708 20.9004 14.0708C24.7446 14.0708 27.8611 17.1872 27.8611 21.0315C27.8611 22.9403 27.0927 24.6697 25.8484 25.9272L25.8224 25.9535L25.7993 25.9764C24.5415 27.2225 22.8108 27.9922 20.9004 27.9922C19.003 27.9922 17.2829 27.233 16.0272 26.0018C16.0109 25.9858 15.9946 25.9696 15.9784 25.9535C15.9632 25.9382 15.948 25.9229 15.9329 25.9075C14.7001 24.6517 13.9397 22.9304 13.9397 21.0315C13.9397 24.8758 10.8233 27.9922 6.97901 27.9922C3.13472 27.9922 0.0183105 24.8758 0.0183105 21.0315V14.0708H6.97901C3.13472 14.0708 0.0183105 10.9544 0.0183105 7.11011C0.0183105 3.26582 3.13472 0.149414 6.97901 0.149414ZM12.5476 7.11011C12.5476 10.1856 10.0544 12.6787 6.97901 12.6787V1.54155C10.0544 1.54155 12.5476 4.03468 12.5476 7.11011ZM26.469 21.0315C26.469 17.9561 23.9758 15.4629 20.9004 15.4629C17.825 15.4629 15.3318 17.9561 15.3318 21.0315H26.469ZM1.41045 15.4629V21.0315C1.41045 24.1069 3.90358 26.6001 6.97901 26.6001C10.0544 26.6001 12.5476 24.1069 12.5476 21.0315V15.4629H1.41045ZM15.3318 12.6787V1.54155H20.9004C23.9758 1.54155 26.469 4.03468 26.469 7.11011C26.469 10.1856 23.9758 12.6787 20.9004 12.6787H15.3318Z" fill="#263238"/>
</g>
<defs>
<clipPath id="clip0_211_2047">
<rect width="27.8428" height="27.8428" fill="white" transform="translate(0.0183105 0.149414)"/>
</clipPath>
</defs>
</svg>
