<svg width="46" height="40" viewBox="0 0 46 40" fill="none" xmlns="http://www.w3.org/2000/svg">
<path d="M45.6658 26.8834C45.6658 33.8031 40.0562 39.4126 33.1365 39.4126L14.3426 39.4126C12.4205 39.4126 10.8623 37.8544 10.8623 35.9322L10.8623 12.2659C10.8623 8.4216 13.9787 5.30519 17.823 5.30519L42.1854 5.30519C44.1076 5.30519 45.6658 6.8634 45.6658 8.78554L45.6658 26.8834Z" fill="#E8F5E9"/>
<path d="M20.128 16.8909C19.9604 16.8909 19.8048 16.8448 19.6666 16.7707V16.7727C19.6666 17.0364 19.5641 17.284 19.3781 17.4695C19.1921 17.6555 18.9447 17.7579 18.6813 17.7579C18.5112 17.7579 18.3536 17.7107 18.2139 17.6346C18.1998 17.8759 18.1034 18.1013 17.9313 18.2735C17.7454 18.4595 17.4979 18.562 17.2343 18.562C16.7107 18.562 16.2855 18.1504 16.2548 17.6345C16.0928 17.722 15.9096 17.768 15.7207 17.7558C15.2056 17.722 14.8022 17.277 14.8022 16.7423V12.3107L14.2975 13.1849C14.1053 13.5193 13.7456 13.7269 13.3582 13.7269C13.1694 13.7269 12.983 13.6774 12.8178 13.5828C12.6122 13.4635 12.4651 13.2722 12.4039 13.0432C12.3424 12.8141 12.3742 12.5745 12.4931 12.3692C12.4933 12.3692 14.1442 9.5103 14.2449 9.33469C14.2569 9.30828 14.291 9.2317 14.32 9.16643C14.3477 9.10411 14.3715 9.04016 14.3943 8.97587C14.8922 7.57031 16.1249 6.69721 17.6117 6.69721C19.5424 6.69721 21.1131 8.40042 21.1131 10.494L21.1132 15.9055C21.1132 16.1688 21.0109 16.4163 20.8251 16.6025C20.6391 16.7884 20.3917 16.8909 20.128 16.8909L20.128 16.8909ZM17.6117 7.22075C16.3342 7.22075 15.316 7.94234 14.8878 9.15096C14.8604 9.22771 14.8319 9.30446 14.7986 9.37924C14.702 9.59588 14.702 9.59587 14.6748 9.62703L14.6712 9.62391C14.5364 9.87827 14.1359 10.5718 12.9464 12.6312C12.8976 12.7157 12.8846 12.8137 12.9095 12.9075C12.9348 13.0013 12.9953 13.0804 13.0791 13.1288C13.3392 13.2782 13.6954 13.1817 13.8436 12.9234L14.8373 11.2031C14.8966 11.1007 15.0167 11.0503 15.1318 11.0815C15.2463 11.1121 15.3258 11.2159 15.3258 11.3343V16.7425C15.3258 16.9976 15.5183 17.2179 15.755 17.2335C15.8914 17.2407 16.0187 17.1949 16.1143 17.0995C16.2012 17.0126 16.2491 16.8968 16.2491 16.773V13.236C16.2491 13.0913 16.3664 12.9741 16.511 12.9741C16.6556 12.9741 16.7729 13.0912 16.7729 13.236L16.7727 17.5769C16.7727 17.8314 16.9799 18.0386 17.2344 18.0386C17.358 18.0386 17.4741 17.9907 17.5612 17.9038C17.6481 17.8167 17.696 17.7006 17.696 17.5769V13.236C17.696 13.0913 17.8131 12.9741 17.9579 12.9741C18.1025 12.9741 18.2198 13.0912 18.2198 13.236L18.2196 16.7323V16.773C18.2196 17.0273 18.4268 17.2344 18.6814 17.2344C18.8049 17.2344 18.9207 17.1864 19.0083 17.0991C19.0952 17.0124 19.1431 16.8966 19.1431 16.7728V13.2358C19.1431 13.0911 19.2602 12.9739 19.405 12.9739C19.5496 12.9739 19.6669 13.091 19.6669 13.2358L19.6665 15.9056C19.6665 16.1603 19.8737 16.3674 20.128 16.3674C20.2518 16.3674 20.3676 16.3194 20.4545 16.2326C20.5418 16.1454 20.5895 16.0292 20.5895 15.9056L20.5896 10.4941C20.5896 8.68938 19.2538 7.22081 17.6117 7.22081L17.6117 7.22075Z" fill="#103E13"/>
<path d="M9.83834 20.6521L13.6387 18.3722C14.0969 18.0971 14.6864 18.214 14.9803 18.6386C15.0876 18.7932 15.1423 18.9734 15.1509 19.157C15.2925 19.083 15.4467 19.0428 15.6036 19.0428C15.684 19.0428 15.7647 19.0528 15.8444 19.0727C16.0997 19.1365 16.3149 19.296 16.4502 19.5217C16.5856 19.7476 16.6252 20.0125 16.5614 20.2675C16.5025 20.5035 16.359 20.7021 16.1594 20.8384C16.299 20.9207 16.4193 21.033 16.505 21.176C16.6404 21.402 16.6799 21.6667 16.6163 21.9221C16.5525 22.1771 16.3929 22.3922 16.167 22.5279L16.1657 22.5287C16.3028 22.6108 16.421 22.722 16.5056 22.8629C16.6412 23.0889 16.6808 23.3537 16.617 23.6091C16.553 23.8642 16.3934 24.0794 16.1678 24.2149L11.5275 26.9986C10.6615 27.518 9.66028 27.6973 8.7088 27.5029C7.7488 27.3068 6.95374 26.755 6.47032 25.9491C5.70528 24.6741 5.81993 23.1676 6.76895 22.0178C6.81241 21.9654 6.85521 21.9119 6.89408 21.8565C6.93524 21.7979 6.98329 21.7291 6.99969 21.7054C7.09792 21.53 8.7008 18.642 8.70063 18.6424C8.86249 18.3503 9.16588 18.185 9.47877 18.1852C9.62472 18.1852 9.77281 18.2211 9.90942 18.2968C10.0744 18.389 10.213 18.5233 10.3099 18.6852C10.5091 19.0173 10.5162 19.4328 10.3286 19.7691L9.83834 20.6521ZM9.86114 18.9544C9.8103 18.8696 9.74044 18.802 9.655 18.7542C9.47838 18.6564 9.25601 18.7201 9.15877 18.896C8.01182 20.9623 7.62084 21.6665 7.46996 21.9171L7.4734 21.9179C7.46077 21.9599 7.46077 21.9599 7.32269 22.1572C7.27579 22.2239 7.22479 22.288 7.17281 22.3512C6.35676 23.3399 6.262 24.5841 6.91911 25.6797C7.32614 26.3583 7.99884 26.8236 8.81338 26.9899C9.63678 27.1573 10.5046 27.0015 11.2579 26.5496L15.8986 23.7656C16.0045 23.7022 16.0793 23.6013 16.1091 23.4818C16.139 23.3624 16.1205 23.2382 16.0568 23.1323C15.926 22.9142 15.6418 22.8425 15.4236 22.9739L13.1343 24.3473C13.0103 24.4218 12.8493 24.3818 12.775 24.2576C12.7006 24.1336 12.7407 23.9728 12.8647 23.8983L15.1542 22.5249L15.8978 22.0788C16.0037 22.0152 16.0786 21.9143 16.1085 21.7951C16.1383 21.6756 16.1198 21.5513 16.0562 21.4455C15.9251 21.2272 15.6409 21.1562 15.423 21.2871L12.39 23.1066C12.2657 23.1812 12.1051 23.1408 12.0307 23.0169C11.9562 22.8929 11.9965 22.732 12.1204 22.6576L15.8428 20.4245C15.9488 20.3609 16.0235 20.2602 16.0534 20.1406C16.0832 20.0212 16.0647 19.8971 16.0012 19.7911C15.9378 19.6854 15.8369 19.6106 15.7174 19.5807C15.5972 19.5509 15.4735 19.5694 15.3679 19.6327L14.6788 20.0462C14.6786 20.0462 14.6786 20.0463 14.6785 20.0463H14.6783L11.6454 21.8658C11.5211 21.9406 11.3604 21.9003 11.2861 21.7761C11.2117 21.6521 11.252 21.4913 11.3758 21.4168L14.4089 19.5973C14.5148 19.5337 14.5898 19.4328 14.6196 19.3136C14.6524 19.1827 14.6275 19.0489 14.5497 18.9368C14.4149 18.7418 14.1266 18.6899 13.908 18.8213L9.27071 21.6033C9.16919 21.664 9.03915 21.6492 8.95404 21.567C8.86876 21.4847 8.84957 21.3553 8.90697 21.2518L9.87126 19.5145C9.96801 19.3408 9.96424 19.1263 9.86109 18.9545L9.86114 18.9544Z" fill="#103E13"/>
<path d="M27.998 25.949C27.5147 26.755 26.7199 27.3067 25.7597 27.5028C24.8081 27.6968 23.8072 27.5179 22.941 26.9985L18.3003 24.2146C18.0745 24.0792 17.9148 23.864 17.8508 23.6085C17.7873 23.3535 17.827 23.0886 17.9623 22.863C18.0468 22.7219 18.1652 22.6107 18.3024 22.5286L18.3011 22.5278C18.0753 22.3923 17.9156 22.1772 17.852 21.922C17.788 21.6668 17.8277 21.4018 17.9631 21.1758C18.0504 21.0307 18.1699 20.9172 18.3064 20.8367C18.1083 20.7004 17.9656 20.5025 17.9069 20.2676C17.8429 20.0123 17.8826 19.7474 18.0181 19.5218C18.1534 19.2959 18.3687 19.1364 18.6239 19.0726C18.7036 19.0526 18.7844 19.0427 18.8645 19.0427C19.0216 19.0429 19.1757 19.0828 19.3174 19.1569C19.3261 18.9734 19.3807 18.7932 19.488 18.6385C19.782 18.2143 20.371 18.0968 20.8299 18.3722L24.6301 20.6517L24.1403 19.7694C23.9523 19.4325 23.9592 19.017 24.1585 18.6847C24.2556 18.523 24.3943 18.3887 24.5601 18.2957C24.6964 18.2203 24.844 18.1846 24.9896 18.1846C25.3023 18.1847 25.606 18.3497 25.7677 18.6418C26.3312 19.6571 27.3945 21.5718 27.4693 21.7055C27.4852 21.7286 27.5332 21.7975 27.5744 21.856C27.6136 21.9116 27.6559 21.9648 27.6997 22.0176C28.6486 23.1678 28.763 24.6741 27.998 25.949L27.998 25.949ZM27.2957 22.3513C27.2435 22.2882 27.1924 22.2237 27.1458 22.1573C27.0041 21.9563 27.0005 21.951 26.9898 21.8984C26.8242 21.6244 26.4201 20.8969 25.3094 18.8958C25.212 18.7202 24.9906 18.6561 24.8143 18.7535C24.7276 18.802 24.6579 18.8697 24.607 18.9545C24.504 19.1262 24.5001 19.3407 24.5974 19.5149L25.5613 21.2518C25.6189 21.3554 25.5997 21.4846 25.5146 21.5669C25.4296 21.6494 25.2997 21.6639 25.1977 21.6032L20.5604 18.8212C20.3418 18.6902 20.0537 18.7415 19.9185 18.9367C19.8408 19.0488 19.816 19.1826 19.8485 19.3133C19.8784 19.4327 19.9533 19.5334 20.0594 19.5971C20.0597 19.5972 20.0599 19.5975 20.0602 19.5977L23.0923 21.4167C23.2163 21.4912 23.2564 21.6519 23.182 21.776C23.1075 21.8998 22.947 21.9403 22.8227 21.8657L19.1002 19.6327C18.9946 19.5694 18.8703 19.5507 18.7509 19.5807C18.6312 19.6105 18.5305 19.6853 18.467 19.7914C18.4034 19.8972 18.385 20.0213 18.4146 20.1407C18.4444 20.2601 18.5194 20.3609 18.6253 20.4246L19.3497 20.859L22.3476 22.6577C22.4716 22.7321 22.5118 22.8928 22.4373 23.017C22.3628 23.1408 22.2023 23.1811 22.078 23.1067L19.0453 21.2872C18.8272 21.156 18.5431 21.2272 18.4119 21.4456C18.3483 21.5515 18.33 21.6757 18.3595 21.7951C18.3893 21.9145 18.4643 22.0151 18.5704 22.0789L19.3139 22.525L21.6031 23.8984C21.727 23.9729 21.7672 24.1336 21.6928 24.2577C21.6183 24.3816 21.4578 24.4222 21.3335 24.3475L19.0443 22.974C18.9387 22.9107 18.8149 22.892 18.6948 22.922C18.5754 22.9519 18.4744 23.0266 18.411 23.1324C18.3475 23.2384 18.329 23.3627 18.3585 23.4819C18.3883 23.6013 18.4633 23.702 18.5694 23.7658L23.2101 26.5497C23.9632 27.0015 24.8316 27.1579 25.6546 26.99C26.4689 26.8237 27.1417 26.3584 27.5487 25.6799C28.2064 24.584 28.1118 23.3397 27.296 22.3513L27.2957 22.3513Z" fill="#103E13"/>
</svg>
