<svg width="46" height="40" viewBox="0 0 46 40" fill="none" xmlns="http://www.w3.org/2000/svg">
<path d="M45.9187 26.8834C45.9187 33.8031 40.3092 39.4126 33.3894 39.4126L14.5956 39.4126C12.6734 39.4126 11.1152 37.8544 11.1152 35.9322L11.1152 12.2659C11.1152 8.4216 14.2316 5.30519 18.0759 5.30519L42.4384 5.30519C44.3605 5.30519 45.9187 6.8634 45.9187 8.78554L45.9187 26.8834Z" fill="#E8F5E9"/>
<path d="M17.3728 7.39331C14.8869 7.39331 12.8632 9.4355 12.8632 11.9319C12.8632 13.5112 13.6742 14.9056 14.8988 15.7184C13.4197 16.213 12.1399 17.1372 11.2013 18.3464C10.6823 17.9473 10.1024 17.6262 9.47729 17.3962C10.4252 16.6924 11.0447 15.5619 11.0447 14.2913C11.0447 12.1741 9.33233 10.4408 7.22789 10.4408C5.12346 10.4408 3.41107 12.1741 3.41107 14.2913C3.41107 15.5627 4.03106 16.6937 4.97981 17.3974C2.46799 18.3243 0.674072 20.7511 0.674072 23.607V25.6132C0.674329 25.7662 0.735505 25.9127 0.843975 26.0204C0.952444 26.1283 1.09922 26.1885 1.25216 26.188H10.0539C10.0753 26.1903 10.0966 26.1916 10.1179 26.1913H24.6281C24.6494 26.1916 24.671 26.1903 24.6921 26.188H33.4945C33.8109 26.1867 34.0672 25.9299 34.068 25.6132V23.607C34.068 20.7511 32.2772 18.3243 29.7667 17.3972C30.7154 16.6937 31.3354 15.5624 31.3354 14.2911C31.3354 12.1738 29.623 10.4406 27.5186 10.4406C25.4142 10.4406 23.7017 12.1738 23.7017 14.2911C23.7017 15.5617 24.3215 16.6924 25.2694 17.3959C24.643 17.6265 24.0629 17.9486 23.5432 18.3487C22.605 17.1388 21.3269 16.2132 19.8479 15.7184C21.0722 14.9056 21.8835 13.5112 21.8835 11.9319C21.8835 9.4355 19.8587 7.39331 17.3729 7.39331H17.3728ZM17.3728 8.54486C19.232 8.54486 20.7307 10.0537 20.7307 11.9319C20.7307 13.7955 19.2553 15.2896 17.4167 15.3136C17.4021 15.3136 17.3877 15.3115 17.3728 15.3115C17.3579 15.3115 17.3437 15.3136 17.3288 15.3136C15.4902 15.2899 14.0158 13.7955 14.0158 11.9319C14.0158 10.0535 15.5133 8.54486 17.3725 8.54486H17.3728ZM7.22796 11.5923C8.70312 11.5923 9.89323 12.7896 9.89323 14.2913C9.89323 15.7829 8.71852 16.975 7.25724 16.9912C7.24747 16.9912 7.23796 16.9902 7.22794 16.9902C7.21817 16.9902 7.20866 16.9912 7.19864 16.9912C5.73735 16.975 4.56264 15.7826 4.56264 14.2913C4.56264 12.7897 5.75275 11.5923 7.22792 11.5923H7.22796ZM27.5182 11.5923C28.9934 11.5923 30.1835 12.7896 30.1835 14.2913C30.1835 15.7829 29.0088 16.975 27.5475 16.9912C27.5377 16.9912 27.5282 16.9902 27.5182 16.9902C27.5084 16.9902 27.4989 16.9912 27.4889 16.9912C26.0276 16.975 24.8529 15.7826 24.8529 14.2913C24.8529 12.7897 26.043 11.5923 27.5182 11.5923H27.5182ZM17.3287 16.4651C17.3433 16.4653 17.3577 16.4671 17.3726 16.4671C17.3873 16.4671 17.4017 16.4651 17.4166 16.4651C21.1038 16.4887 24.0548 19.465 24.0548 23.1908L24.0545 25.0394H10.6913V23.1908C10.6913 19.4647 13.6414 16.4888 17.3282 16.4651H17.3287ZM7.18387 18.1441C7.19852 18.1444 7.21292 18.1461 7.22782 18.1461C7.24273 18.1461 7.25687 18.1441 7.27178 18.1441C8.51894 18.1541 9.65713 18.5841 10.5634 19.3036C9.91491 20.4511 9.53987 21.7755 9.53987 23.1911V25.0354H1.82516V23.607C1.82516 20.579 4.2059 18.1677 7.18373 18.1438L7.18387 18.1441ZM27.4741 18.1441C27.489 18.1444 27.5032 18.1461 27.5181 18.1461C27.533 18.1461 27.5471 18.1441 27.562 18.1441C30.5399 18.1677 32.9206 20.5793 32.9206 23.6072V25.0354H25.202L25.2017 23.1911C25.2017 21.7763 24.8277 20.4528 24.1805 19.3056C25.087 18.5852 26.226 18.1541 27.4742 18.1441H27.4741Z" fill="#103E13"/>
</svg>
