<svg width="34" height="34" viewBox="0 0 34 34" fill="none" xmlns="http://www.w3.org/2000/svg">
<path d="M4.13275 11.634V11.982H4.48079H29.5393H29.8873V11.634V10.0679C29.8873 9.28327 29.5756 8.53081 29.0209 7.97602C28.4661 7.42123 27.7136 7.10956 26.929 7.10956H7.09105C6.30646 7.10956 5.554 7.42123 4.99922 7.97602C4.44443 8.53081 4.13275 9.28327 4.13275 10.0679V11.634ZM29.8873 13.7222V13.3742H29.5393H4.48079H4.13275V13.7222V23.6412C4.13275 24.4258 4.44443 25.1783 4.99922 25.733C5.554 26.2878 6.30646 26.5995 7.09105 26.5995H26.929C27.7136 26.5995 28.4661 26.2878 29.0209 25.733C29.5756 25.1783 29.8873 24.4258 29.8873 23.6412V13.7222ZM2.74061 10.0679C2.74061 8.91405 3.19896 7.8075 4.01483 6.99163C4.83069 6.17577 5.93724 5.71742 7.09105 5.71742H26.929C28.0828 5.71742 29.1894 6.17577 30.0052 6.99163C30.8211 7.8075 31.2795 8.91405 31.2795 10.0679V23.6412C31.2795 24.795 30.8211 25.9016 30.0052 26.7174C29.1894 27.5333 28.0828 27.9916 26.929 27.9916H7.09105C5.93724 27.9916 4.83069 27.5333 4.01483 26.7174C3.19896 25.9016 2.74061 24.795 2.74061 23.6412V10.0679ZM22.2306 20.3349H25.3629C25.5475 20.3349 25.7245 20.4082 25.8551 20.5388C25.9856 20.6693 26.0589 20.8463 26.0589 21.0309C26.0589 21.2156 25.9856 21.3926 25.8551 21.5231C25.7245 21.6537 25.5475 21.727 25.3629 21.727H22.2306C22.0459 21.727 21.8689 21.6537 21.7384 21.5231C21.6078 21.3926 21.5345 21.2156 21.5345 21.0309C21.5345 20.8463 21.6078 20.6693 21.7384 20.5388C21.8689 20.4082 22.0459 20.3349 22.2306 20.3349Z" fill="#4CAF4F" stroke="#4CAF4F" stroke-width="0.696069"/>
</svg>
