<svg width="31" height="22" viewBox="0 0 31 22" fill="none" xmlns="http://www.w3.org/2000/svg">
<path d="M17.0185 12.0322L12.3793 19.9777L7.74004 12.0322H17.0185ZM18.2614 11.3221H6.49219L12.3793 21.3831L18.2614 11.3221Z" fill="white"/>
<path d="M25.0841 2.14975L29.7234 10.0953H20.4449L25.0841 2.14975ZM25.0841 0.729492L19.197 10.7905H30.9712L25.0841 0.729492Z" fill="white"/>
<path d="M0.851562 0.729492L5.78769 9.62848L11.1817 0.952948L0.851562 0.729492Z" fill="#4CAF4F"/>
<path d="M12.3793 1.50897L17.557 10.3583H7.19165L12.3793 1.50897Z" fill="#4CAF4F"/>
<path d="M18.8902 12.2904L24.0728 21.3831H13.4609L18.7291 12.2904H18.8902Z" fill="#4CAF4F"/>
<path d="M20.0122 11.7391L25.0842 20.6927L30.2266 11.7391H20.0122Z" fill="#4CAF4F"/>
</svg>
