<svg width="97" height="18" viewBox="0 0 97 18" fill="none" xmlns="http://www.w3.org/2000/svg">
<path d="M15.5135 0.16571V17.69H12.3132L4.68915 6.6603H4.56079V17.69H0.855713V0.16571H4.10729L11.6715 11.1868H11.8255V0.16571H15.5135Z" fill="white"/>
<path d="M24.4959 17.9467C23.144 17.9467 21.9802 17.6729 21.0048 17.1252C20.035 16.5719 19.2877 15.7904 18.7629 14.7807C18.2381 13.7653 17.9757 12.5645 17.9757 11.1783C17.9757 9.8263 18.2381 8.63976 18.7629 7.61866C19.2877 6.59755 20.0264 5.80177 20.9791 5.23132C21.9375 4.66087 23.0612 4.37564 24.3505 4.37564C25.2175 4.37564 26.0247 4.5154 26.772 4.79492C27.525 5.06874 28.181 5.48232 28.7401 6.03565C29.3048 6.58899 29.7441 7.28494 30.0578 8.12351C30.3716 8.95636 30.5284 9.93184 30.5284 11.0499V12.0511H19.4303V9.79208H27.0972C27.0972 9.26726 26.9831 8.80234 26.7549 8.39732C26.5267 7.9923 26.2101 7.6757 25.8051 7.44752C25.4058 7.21364 24.9409 7.09669 24.4104 7.09669C23.857 7.09669 23.3664 7.22504 22.9386 7.48175C22.5165 7.73275 22.1856 8.07216 21.946 8.5C21.7064 8.92214 21.5838 9.39276 21.5781 9.91187V12.0596C21.5781 12.7099 21.6979 13.2718 21.9375 13.7453C22.1827 14.2188 22.5279 14.5839 22.9728 14.8406C23.4178 15.0973 23.9454 15.2256 24.5558 15.2256C24.9608 15.2256 25.3316 15.1686 25.6682 15.0545C26.0048 14.9404 26.2928 14.7693 26.5324 14.5411C26.772 14.3129 26.9546 14.0334 27.0801 13.7025L30.4514 13.925C30.2803 14.735 29.9295 15.4424 29.399 16.0471C28.8741 16.646 28.1953 17.1138 27.3624 17.4504C26.5353 17.7812 25.5798 17.9467 24.4959 17.9467Z" fill="white"/>
<path d="M35.7181 4.54678L38.1311 9.14176L40.604 4.54678H44.3434L40.5356 11.1184L44.446 17.69H40.7238L38.1311 13.1463L35.5812 17.69H31.8162L35.7181 11.1184L31.9532 4.54678H35.7181Z" fill="white"/>
<path d="M51.976 17.9467C50.6297 17.9467 49.4717 17.6615 48.5019 17.091C47.5379 16.5148 46.7963 15.7162 46.2772 14.6951C45.7638 13.674 45.5071 12.4989 45.5071 11.1697C45.5071 9.82345 45.7666 8.64262 46.2857 7.62721C46.8106 6.60611 47.555 5.81033 48.5191 5.23987C49.4831 4.66372 50.6297 4.37564 51.9589 4.37564C53.1055 4.37564 54.1095 4.58386 54.9709 5.00028C55.8322 5.41671 56.5139 6.00143 57.0159 6.75442C57.5179 7.50742 57.7946 8.39162 57.8459 9.40702H54.4061C54.3091 8.751 54.0524 8.22333 53.636 7.82402C53.2253 7.419 52.6862 7.21649 52.0188 7.21649C51.454 7.21649 50.9606 7.37051 50.5385 7.67855C50.122 7.98089 49.7969 8.42299 49.563 9.00485C49.3291 9.58671 49.2122 10.2912 49.2122 11.1184C49.2122 11.9569 49.3262 12.67 49.5544 13.2576C49.7883 13.8451 50.1163 14.2929 50.5385 14.601C50.9606 14.909 51.454 15.063 52.0188 15.063C52.4352 15.063 52.8089 14.9775 53.1397 14.8063C53.4763 14.6352 53.7529 14.3871 53.9697 14.0619C54.1922 13.731 54.3377 13.3346 54.4061 12.8725H57.8459C57.7889 13.8765 57.5151 14.7607 57.0245 15.5251C56.5396 16.2838 55.8693 16.8771 55.0136 17.3049C54.158 17.7328 53.1454 17.9467 51.976 17.9467Z" fill="white"/>
<path d="M66.1695 17.9467C64.8176 17.9467 63.6538 17.6729 62.6784 17.1252C61.7086 16.5719 60.9613 15.7904 60.4365 14.7807C59.9117 13.7653 59.6493 12.5645 59.6493 11.1783C59.6493 9.8263 59.9117 8.63976 60.4365 7.61866C60.9613 6.59755 61.7 5.80177 62.6527 5.23132C63.6111 4.66087 64.7348 4.37564 66.0241 4.37564C66.8912 4.37564 67.6983 4.5154 68.4456 4.79492C69.1986 5.06874 69.8546 5.48232 70.4137 6.03565C70.9784 6.58899 71.4177 7.28494 71.7314 8.12351C72.0452 8.95636 72.2021 9.93184 72.2021 11.0499V12.0511H61.1039V9.79208H68.7708C68.7708 9.26726 68.6567 8.80234 68.4285 8.39732C68.2003 7.9923 67.8837 7.6757 67.4787 7.44752C67.0794 7.21364 66.6145 7.09669 66.084 7.09669C65.5306 7.09669 65.04 7.22504 64.6122 7.48175C64.1901 7.73275 63.8592 8.07216 63.6196 8.5C63.38 8.92214 63.2574 9.39276 63.2517 9.91187V12.0596C63.2517 12.7099 63.3715 13.2718 63.6111 13.7453C63.8564 14.2188 64.2015 14.5839 64.6464 14.8406C65.0914 15.0973 65.619 15.2256 66.2294 15.2256C66.6344 15.2256 67.0052 15.1686 67.3418 15.0545C67.6784 14.9404 67.9664 14.7693 68.206 14.5411C68.4456 14.3129 68.6282 14.0334 68.7537 13.7025L72.125 13.925C71.9539 14.735 71.6031 15.4424 71.0726 16.0471C70.5477 16.646 69.8689 17.1138 69.036 17.4504C68.2089 17.7812 67.2534 17.9467 66.1695 17.9467Z" fill="white"/>
<path d="M78.226 10.0916V17.69H74.5808V4.54678H78.0549V6.86566H78.2089C78.4998 6.10126 78.9876 5.49658 79.6721 5.05162C80.3567 4.60097 81.1867 4.37564 82.1621 4.37564C83.0749 4.37564 83.8706 4.5753 84.5495 4.97462C85.2283 5.37393 85.756 5.94438 86.1325 6.68597C86.509 7.42185 86.6972 8.30035 86.6972 9.32145V17.69H83.052V9.97177C83.0577 9.16743 82.8524 8.53994 82.4359 8.08928C82.0195 7.63292 81.4462 7.40474 80.716 7.40474C80.2254 7.40474 79.7919 7.51027 79.4154 7.72134C79.0446 7.93241 78.7537 8.24045 78.5426 8.64547C78.3373 9.04479 78.2317 9.52682 78.226 10.0916Z" fill="white"/>
<path d="M96.561 4.54678V7.28494H88.646V4.54678H96.561ZM90.4429 1.39789H94.0881V13.6512C94.0881 13.9877 94.1395 14.2502 94.2421 14.4384C94.3448 14.6209 94.4874 14.7493 94.67 14.8235C94.8582 14.8976 95.075 14.9347 95.3203 14.9347C95.4914 14.9347 95.6626 14.9204 95.8337 14.8919C96.0048 14.8577 96.136 14.832 96.2273 14.8149L96.8006 17.5274C96.6181 17.5844 96.3614 17.65 96.0305 17.7242C95.6997 17.8041 95.2975 17.8526 94.824 17.8697C93.9455 17.9039 93.1754 17.7869 92.5137 17.5188C91.8577 17.2507 91.3471 16.8343 90.982 16.2696C90.6169 15.7048 90.4372 14.9917 90.4429 14.1304V1.39789Z" fill="white"/>
</svg>
