<svg width="14" height="13" viewBox="0 0 14 13" fill="none" xmlns="http://www.w3.org/2000/svg">
<g clip-path="url(#clip0_736_231)">
<path fill-rule="evenodd" clip-rule="evenodd" d="M12.4609 0.766873C12.6027 0.908682 12.6508 1.11919 12.5845 1.30848L8.93014 11.7495C8.85943 11.9516 8.67255 12.09 8.45867 12.0987C8.2448 12.1074 8.04727 11.9847 7.96034 11.7891L5.95368 7.2741L1.43869 5.26744C1.24309 5.18051 1.12037 4.98298 1.1291 4.7691C1.13782 4.55523 1.27622 4.36835 1.47826 4.29764L11.9193 0.643276C12.1086 0.577025 12.3191 0.625064 12.4609 0.766873ZM6.97186 6.99421L8.37965 10.1617L10.8433 3.12279L6.97186 6.99421ZM10.105 2.38449L3.06604 4.84813L6.23357 6.25592L10.105 2.38449Z" fill="white"/>
</g>
<defs>
<clipPath id="clip0_736_231">
<rect width="12.5293" height="12.5293" fill="white" transform="translate(0.606445 0.0919189)"/>
</clipPath>
</defs>
</svg>
