<svg width="24" height="23" viewBox="0 0 24 23" fill="none" xmlns="http://www.w3.org/2000/svg">
<path opacity="0.1" fill-rule="evenodd" clip-rule="evenodd" d="M0.851562 11.7743C0.851562 5.62346 5.83782 0.637207 11.9887 0.637207C18.1395 0.637207 23.1258 5.62346 23.1258 11.7743C23.1258 17.9252 18.1395 22.9114 11.9887 22.9114C5.83782 22.9114 0.851562 17.9252 0.851562 11.7743Z" fill="white"/>
<path fill-rule="evenodd" clip-rule="evenodd" d="M11.9889 5.83453C10.3758 5.83453 10.1733 5.84159 9.53973 5.87042C8.90739 5.89938 8.47576 5.99949 8.09808 6.14638C7.70741 6.29809 7.37602 6.50103 7.04586 6.83132C6.71546 7.16147 6.51251 7.49287 6.3603 7.88341C6.21304 8.26121 6.11281 8.69296 6.08435 9.32506C6.05601 9.95865 6.04858 10.1612 6.04858 11.7744C6.04858 13.3876 6.05576 13.5894 6.08447 14.223C6.11355 14.8553 6.21366 15.2869 6.36043 15.6646C6.51226 16.0553 6.71521 16.3867 7.04549 16.7168C7.37552 17.0472 7.70692 17.2507 8.09734 17.4024C8.47526 17.5493 8.90702 17.6494 9.53924 17.6784C10.1728 17.7072 10.3752 17.7142 11.9882 17.7142C13.6015 17.7142 13.8033 17.7072 14.4369 17.6784C15.0692 17.6494 15.5014 17.5493 15.8793 17.4024C16.2698 17.2507 16.6007 17.0472 16.9308 16.7168C17.2612 16.3867 17.4641 16.0553 17.6163 15.6647C17.7623 15.2869 17.8626 14.8552 17.8923 14.2231C17.9207 13.5895 17.9282 13.3876 17.9282 11.7744C17.9282 10.1612 17.9207 9.95877 17.8923 9.32519C17.8626 8.69284 17.7623 8.26121 17.6163 7.88354C17.4641 7.49287 17.2612 7.16147 16.9308 6.83132C16.6004 6.50091 16.27 6.29797 15.8789 6.14638C15.5003 5.99949 15.0684 5.89938 14.436 5.87042C13.8024 5.84159 13.6007 5.83453 11.9871 5.83453H11.9889ZM11.4561 6.90493C11.6142 6.90468 11.7907 6.90493 11.9889 6.90493C13.5748 6.90493 13.7628 6.91062 14.3891 6.93908C14.9682 6.96556 15.2826 7.06233 15.4919 7.14364C15.7691 7.2513 15.9668 7.37999 16.1745 7.58789C16.3824 7.79578 16.5111 7.99378 16.619 8.27097C16.7003 8.4801 16.7972 8.79442 16.8236 9.37356C16.852 9.99972 16.8582 10.1878 16.8582 11.773C16.8582 13.3582 16.852 13.5463 16.8236 14.1725C16.7971 14.7516 16.7003 15.0659 16.619 15.2751C16.5114 15.5522 16.3824 15.7496 16.1745 15.9574C15.9666 16.1653 15.7693 16.294 15.4919 16.4016C15.2828 16.4833 14.9682 16.5798 14.3891 16.6063C13.7629 16.6348 13.5748 16.641 11.9889 16.641C10.4028 16.641 10.2149 16.6348 9.58871 16.6063C9.00958 16.5796 8.69526 16.4828 8.48576 16.4015C8.20856 16.2939 8.01057 16.1652 7.80267 15.9573C7.59478 15.7494 7.46608 15.5519 7.35817 15.2746C7.27687 15.0654 7.17998 14.7511 7.15362 14.172C7.12516 13.5458 7.11946 13.3577 7.11946 11.7715C7.11946 10.1853 7.12516 9.99823 7.15362 9.37207C7.1801 8.79294 7.27687 8.47862 7.35817 8.26924C7.46583 7.99205 7.59478 7.79405 7.80267 7.58616C8.01057 7.37826 8.20856 7.24956 8.48576 7.14166C8.69514 7.05998 9.00958 6.96346 9.58871 6.93685C10.1367 6.91211 10.349 6.90468 11.4561 6.90344V6.90493ZM15.1596 7.89119C14.766 7.89119 14.4468 8.21009 14.4468 8.60373C14.4468 8.99724 14.766 9.31651 15.1596 9.31651C15.5531 9.31651 15.8723 8.99724 15.8723 8.60373C15.8723 8.21021 15.5531 7.89119 15.1596 7.89119ZM11.9889 8.72401C10.3044 8.72401 8.93858 10.0898 8.93858 11.7744C8.93858 13.4589 10.3044 14.8241 11.9889 14.8241C13.6735 14.8241 15.0388 13.4589 15.0388 11.7744C15.0388 10.0898 13.6735 8.72401 11.9889 8.72401ZM11.9889 9.79442C13.0823 9.79442 13.9689 10.6808 13.9689 11.7744C13.9689 12.8678 13.0823 13.7543 11.9889 13.7543C10.8954 13.7543 10.009 12.8678 10.009 11.7744C10.009 10.6808 10.8954 9.79442 11.9889 9.79442Z" fill="white"/>
</svg>
