<svg width="23" height="23" viewBox="0 0 23 23" fill="none" xmlns="http://www.w3.org/2000/svg">
<path opacity="0.1" fill-rule="evenodd" clip-rule="evenodd" d="M0.0854492 11.7743C0.0854492 5.62346 5.0717 0.637207 11.2226 0.637207C17.3734 0.637207 22.3597 5.62346 22.3597 11.7743C22.3597 17.9252 17.3734 22.9114 11.2226 22.9114C5.0717 22.9114 0.0854492 17.9252 0.0854492 11.7743Z" fill="white"/>
<path fill-rule="evenodd" clip-rule="evenodd" d="M15.864 7.94565C16.3751 8.08591 16.7777 8.4992 16.9143 9.02404C17.1625 9.97525 17.1625 11.96 17.1625 11.96C17.1625 11.96 17.1625 13.9446 16.9143 14.8959C16.7777 15.4207 16.3751 15.834 15.864 15.9743C14.9376 16.2292 11.2228 16.2292 11.2228 16.2292C11.2228 16.2292 7.50788 16.2292 6.58148 15.9743C6.07032 15.834 5.66776 15.4207 5.53115 14.8959C5.28296 13.9446 5.28296 11.96 5.28296 11.96C5.28296 11.96 5.28296 9.97525 5.53115 9.02404C5.66776 8.4992 6.07032 8.08591 6.58148 7.94565C7.50788 7.69073 11.2228 7.69073 11.2228 7.69073C11.2228 7.69073 14.9376 7.69073 15.864 7.94565ZM10.1091 10.2894V14.0017L13.0789 12.1456L10.1091 10.2894Z" fill="white"/>
</svg>
